<svg xmlns="http://www.w3.org/2000/svg" width="1216" height="68" viewBox="0 0 1216 68" fill="none"><link xmlns="" type="text/css" rel="stylesheet" id="dark-mode-custom-link"/><link xmlns="" type="text/css" rel="stylesheet" id="dark-mode-general-link"/><style xmlns="" lang="en" type="text/css" id="dark-mode-custom-style"/><style xmlns="" lang="en" type="text/css" id="dark-mode-native-style"/><style xmlns="" lang="en" type="text/css" id="dark-mode-native-sheet"/>
<path d="M0 59.4686V10.0369H15.5822V59.4686H14.018V11.7097H1.56423V59.4686H0Z" fill="#667085"/>
<path d="M24.9699 59.4686V10.0369H39.5895V11.6261H26.474V32.6199H36.5814V34.2091H26.474V57.8795H39.5895V59.4686H24.9699Z" fill="#667085"/>
<path d="M45.8859 59.4686V10.0369H55.7527C57.5174 10.0369 59.0215 10.6503 60.2649 11.877C61.5484 13.048 62.1901 15.139 62.1901 18.1501V27.6015C62.1901 29.2743 61.9896 30.8356 61.5885 32.2854C61.2275 33.7351 60.4855 34.9061 59.3624 35.7983C58.2795 36.6904 56.6551 37.1365 54.4892 37.1365H47.39V59.4686H45.8859ZM47.39 35.631H54.4291C56.5147 35.631 58.079 34.934 59.1218 33.54C60.2047 32.0902 60.7462 29.9713 60.7462 27.1833V18.5683C60.7462 16.1706 60.2248 14.4141 59.1819 13.2989C58.1792 12.1279 57.0161 11.5424 55.6925 11.5424H47.39V35.631Z" fill="#667085"/>
<path d="M68.9171 59.4686V10.0369H83.5366V11.6261H70.4211V32.6199H80.5285V34.2091H70.4211V57.8795H83.5366V59.4686H68.9171Z" fill="#667085"/>
<path d="M85.6818 68V57.9631H88.4493C89.4119 57.8516 90.174 57.2661 90.7355 56.2066C91.297 55.1472 91.658 53.1677 91.8184 50.2681C91.9388 47.8147 92.0591 45.2776 92.1794 42.6568C92.2997 40.0361 92.4201 37.3874 92.5404 34.7109C92.7008 32.0344 92.8412 29.33 92.9615 26.5978C93.0819 23.8655 93.2022 21.1054 93.3225 18.3173C93.4829 15.5293 93.6434 12.7692 93.8038 10.0369H107.581V57.9631H112.394V68H110.95V59.5523H87.1257V68H85.6818ZM91.7583 57.9631H106.077V11.7097H95.2477C94.9269 18.1222 94.606 24.4789 94.2851 30.7798C94.0044 37.0808 93.7035 43.4096 93.3827 49.7663C93.3025 51.0488 93.1821 52.4986 93.0217 54.1156C92.8613 55.7327 92.4401 57.0152 91.7583 57.9631Z" fill="#667085"/>
<path d="M136.392 60.1378C134.226 60.1378 132.501 59.5801 131.218 58.4649C129.974 57.3497 129.072 55.8442 128.51 53.9483C127.989 52.0525 127.728 49.9893 127.728 47.7589V43.326H129.292V48.428C129.292 51.4949 129.914 53.9205 131.157 55.7048C132.401 57.4334 134.146 58.3534 136.392 58.4649C138.517 58.4649 140.222 57.6006 141.505 55.8721C142.829 54.0877 143.491 51.6343 143.491 48.5117V44.0787C143.491 41.1234 142.829 38.8093 141.505 37.1365C140.182 35.4637 138.437 34.5715 136.271 34.46H132.301V32.5363H136.271C137.314 32.5363 138.317 32.2296 139.279 31.6162C140.242 31.0029 141.044 30.1107 141.686 28.9397C142.167 28.0476 142.528 27.0996 142.769 26.0959C143.01 25.0365 143.13 23.9213 143.13 22.7503V20.2411C143.13 17.7876 142.588 15.6966 141.505 13.968C140.423 12.2394 138.718 11.3751 136.392 11.3751C134.065 11.3751 132.361 12.2394 131.278 13.968C130.195 15.6966 129.653 17.8155 129.653 20.3247V23.9213H128.029V20.9938C128.029 17.4809 128.691 14.7208 130.014 12.7134C131.338 10.706 133.464 9.70234 136.392 9.70234C139.32 9.70234 141.445 10.706 142.769 12.7134C144.092 14.7208 144.754 17.4809 144.754 20.9938V22.583C144.754 25.5383 144.213 27.9082 143.13 29.6925C142.087 31.4768 140.804 32.7593 139.279 33.54C141.245 34.1533 142.689 35.4637 143.611 37.4711C144.574 39.4785 145.055 41.9041 145.055 44.7478V47.7589C145.055 49.9893 144.794 52.0525 144.273 53.9483C143.752 55.8442 142.849 57.3497 141.566 58.4649C140.322 59.5801 138.598 60.1378 136.392 60.1378Z" fill="#667085"/>
<path d="M148.915 59.4686L157.88 10.0369H159.023L167.927 59.4686H166.483L164.016 46.2534H152.645L150.239 59.4686H148.915ZM152.826 44.8315H163.896L158.421 14.8044L152.826 44.8315Z" fill="#667085"/>
<path d="M181.37 60.4723C179.806 60.4723 178.402 60.2214 177.159 59.7195C175.955 59.2177 174.993 58.1861 174.271 56.6248C173.549 55.0635 173.188 52.6658 173.188 49.4317V20.2411C173.188 17.007 173.549 14.6371 174.271 13.1316C174.993 11.5703 175.975 10.5666 177.219 10.1205C178.502 9.61869 179.926 9.36777 181.49 9.36777C183.095 9.36777 184.498 9.61869 185.702 10.1205C186.945 10.6224 187.928 11.654 188.65 13.2153C189.372 14.7208 189.733 17.0627 189.733 20.2411V27.7688H188.289V20.4084C188.289 17.5646 187.988 15.4736 187.386 14.1353C186.825 12.7413 186.023 11.8491 184.98 11.4588C183.937 11.0127 182.754 10.7897 181.43 10.7897C180.107 10.7897 178.923 11.0127 177.881 11.4588C176.838 11.8491 176.015 12.7413 175.414 14.1353C174.852 15.4736 174.572 17.5646 174.572 20.4084V49.3481C174.572 52.1919 174.852 54.3108 175.414 55.7048C176.015 57.043 176.838 57.9352 177.881 58.3813C178.923 58.7716 180.107 58.9668 181.43 58.9668C182.794 58.9668 183.977 58.7716 184.98 58.3813C186.023 57.9352 186.825 57.043 187.386 55.7048C187.988 54.3108 188.289 52.1919 188.289 49.3481V43.4932H189.733V49.4317C189.733 52.7216 189.372 55.1472 188.65 56.7085C187.928 58.2698 186.945 59.2735 185.702 59.7195C184.458 60.2214 183.014 60.4723 181.37 60.4723Z" fill="#667085"/>
<path d="M200.343 59.4686V11.6261H194.026V10.0369H208.285V11.6261H201.787V59.4686H200.343Z" fill="#667085"/>
<path d="M221.204 60.4723C219.64 60.4723 218.236 60.2214 216.993 59.7195C215.79 59.2177 214.827 58.1861 214.105 56.6248C213.383 55.0635 213.022 52.6658 213.022 49.4317V20.2411C213.022 17.007 213.383 14.6371 214.105 13.1316C214.827 11.5703 215.81 10.5666 217.053 10.1205C218.337 9.61869 219.76 9.36777 221.325 9.36777C222.929 9.36777 224.333 9.61869 225.536 10.1205C226.779 10.6224 227.762 11.654 228.484 13.2153C229.206 14.7208 229.567 17.0627 229.567 20.2411V49.4317C229.567 52.7216 229.206 55.1472 228.484 56.7085C227.762 58.2698 226.779 59.2735 225.536 59.7195C224.293 60.2214 222.849 60.4723 221.204 60.4723ZM221.265 58.9668C222.628 58.9668 223.811 58.7716 224.814 58.3813C225.857 57.9352 226.659 57.043 227.221 55.7048C227.822 54.3108 228.123 52.1919 228.123 49.3481V20.492C228.123 17.6482 227.822 15.5572 227.221 14.2189C226.659 12.8249 225.857 11.9328 224.814 11.5424C223.771 11.0964 222.588 10.8733 221.265 10.8733C219.901 10.8733 218.698 11.0964 217.655 11.5424C216.652 11.9328 215.85 12.8249 215.248 14.2189C214.687 15.5572 214.406 17.6482 214.406 20.492V49.3481C214.406 52.1919 214.687 54.3108 215.248 55.7048C215.85 57.043 216.652 57.9352 217.655 58.3813C218.698 58.7716 219.901 58.9668 221.265 58.9668Z" fill="#667085"/>
<path d="M245.822 60.4723C244.258 60.4723 242.854 60.2214 241.61 59.7195C240.407 59.2177 239.445 58.1861 238.723 56.6248C238.001 55.0635 237.64 52.6658 237.64 49.4317V20.2411C237.64 17.007 238.001 14.6371 238.723 13.1316C239.445 11.5703 240.427 10.5666 241.671 10.1205C242.954 9.61869 244.378 9.36777 245.942 9.36777C247.546 9.36777 248.95 9.61869 250.154 10.1205C251.397 10.6224 252.38 11.654 253.102 13.2153C253.823 14.7208 254.184 17.0627 254.184 20.2411V27.7688H252.741V20.4084C252.741 17.5646 252.44 15.4736 251.838 14.1353C251.277 12.7413 250.474 11.8491 249.432 11.4588C248.389 11.0127 247.206 10.7897 245.882 10.7897C244.558 10.7897 243.375 11.0127 242.332 11.4588C241.29 11.8491 240.467 12.7413 239.866 14.1353C239.304 15.4736 239.023 17.5646 239.023 20.4084V49.3481C239.023 52.1919 239.304 54.3108 239.866 55.7048C240.467 57.043 241.29 57.9352 242.332 58.3813C243.375 58.7716 244.558 58.9668 245.882 58.9668C247.246 58.9668 248.429 58.7716 249.432 58.3813C250.474 57.9352 251.277 57.043 251.838 55.7048C252.44 54.3108 252.741 52.1919 252.741 49.3481V43.4932H254.184V49.4317C254.184 52.7216 253.823 55.1472 253.102 56.7085C252.38 58.2698 251.397 59.2735 250.154 59.7195C248.91 60.2214 247.466 60.4723 245.822 60.4723Z" fill="#667085"/>
<path d="M261.005 59.8032C260.604 59.8032 260.223 59.7474 259.862 59.6359C259.541 59.5802 259.24 59.5244 258.959 59.4686V57.9631C259.16 58.0188 259.401 58.0746 259.681 58.1304C260.002 58.1861 260.363 58.214 260.764 58.214C261.246 58.214 261.767 58.0746 262.329 57.7958C262.89 57.517 263.432 57.0152 263.953 56.2903C264.314 55.7327 264.615 55.0635 264.855 54.2829C265.136 53.5022 265.357 52.5822 265.517 51.5228L258.358 10.0369H259.922L266.48 48.5953H266.359L273.038 10.0369H274.481L267.563 49.9336C266.921 53.5023 266.139 56.0394 265.216 57.5449C264.294 59.0504 262.89 59.8032 261.005 59.8032Z" fill="#667085"/>
<path d="M279.781 59.4686V10.0369H289.587C291.352 10.0369 292.876 10.6503 294.16 11.877C295.443 13.048 296.085 15.139 296.085 18.1501V24.4231C296.085 26.0402 295.905 27.4621 295.544 28.6888C295.223 29.8598 294.802 30.8077 294.28 31.5326C293.638 32.369 292.896 32.8987 292.054 33.1218C291.212 33.3448 290.55 33.4563 290.069 33.4563V33.2054C290.991 33.2054 291.854 33.3448 292.656 33.6236C293.498 33.8467 294.16 34.3206 294.641 35.0455C295.203 35.8819 295.624 36.8856 295.905 38.0566C296.225 39.1718 296.386 40.4822 296.386 41.9877V49.4317C296.386 52.3313 296.065 54.5059 295.423 55.9557C294.822 57.3497 293.959 58.2977 292.836 58.7995C291.753 59.2456 290.49 59.4686 289.046 59.4686H279.781ZM281.225 57.9631H288.986C290.189 57.9631 291.232 57.7679 292.114 57.3776C293.037 56.9315 293.739 56.0951 294.22 54.8684C294.701 53.5859 294.942 51.69 294.942 49.1808V41.8204C294.942 38.8093 294.3 36.802 293.017 35.7983C291.733 34.7946 290.149 34.2927 288.264 34.2927H281.225V57.9631ZM281.225 32.7036H288.204C290.329 32.7036 291.934 31.9787 293.017 30.5289C294.1 29.0791 294.641 27.1275 294.641 24.674V18.4846C294.641 16.1427 294.12 14.4141 293.077 13.2989C292.074 12.1279 290.891 11.5424 289.527 11.5424H281.225V32.7036Z" fill="#667085"/>
<path d="M301.32 59.4686L310.284 10.0369H311.428L320.332 59.4686H318.888L316.421 46.2534H305.05L302.644 59.4686H301.32ZM305.231 44.8315H316.301L310.826 14.8044L305.231 44.8315Z" fill="#667085"/>
<path d="M326.254 59.4686V10.0369H327.698V32.6199H341.476V10.0369H342.859V59.4686H341.476V34.2927H327.698V59.4686H326.254Z" fill="#667085"/>
<path d="M352.223 59.4686V10.0369H353.667V32.6199H367.444V10.0369H368.828V59.4686H367.444V34.2927H353.667V59.4686H352.223Z" fill="#667085"/>
<path d="M393.473 59.4686H392.029V35.5473H385.953C384.469 35.5473 383.386 36.3001 382.704 37.8057C382.062 39.3112 381.541 40.9282 381.14 42.6568L377.41 59.4686H375.846L379.696 42.4895C380.258 39.9246 380.859 38.0287 381.501 36.802C382.183 35.5195 383.165 34.9061 384.449 34.9619V35.1291C382.363 35.1291 380.618 34.4321 379.215 33.0381C377.851 31.6441 377.169 29.4137 377.169 26.3469V18.1501C377.169 15.139 377.811 13.048 379.094 11.877C380.378 10.6503 381.882 10.0369 383.607 10.0369H393.473V59.4686ZM392.029 33.9582V11.5424H384.028C382.223 11.5424 380.859 12.1279 379.937 13.2989C379.054 14.4699 378.613 16.1984 378.613 18.4846V25.6777C378.613 28.2985 379.074 30.3337 379.997 31.7835C380.959 33.2333 382.604 33.9582 384.93 33.9582H392.029Z" fill="#667085"/>
<path d="M402.868 59.4686V10.0369H404.252L413.998 56.2903L423.985 10.0369H425.128V59.4686H423.745V17.23L414.66 59.4686H413.397L404.312 17.23V59.4686H402.868Z" fill="#667085"/>
<path d="M446.521 59.4686V10.0369H462.104V59.4686H460.539V11.7097H448.086V59.4686H446.521Z" fill="#667085"/>
<path d="M471.491 59.4686V10.0369H481.358C483.123 10.0369 484.627 10.6503 485.87 11.877C487.154 13.048 487.796 15.139 487.796 18.1501V27.6015C487.796 29.2743 487.595 30.8356 487.194 32.2854C486.833 33.7351 486.091 34.9061 484.968 35.7983C483.885 36.6904 482.261 37.1365 480.095 37.1365H472.995V59.4686H471.491ZM472.995 35.631H480.034C482.12 35.631 483.684 34.934 484.727 33.54C485.81 32.0902 486.352 29.9713 486.352 27.1833V18.5683C486.352 16.1706 485.83 14.4141 484.787 13.2989C483.785 12.1279 482.622 11.5424 481.298 11.5424H472.995V35.631Z" fill="#667085"/>
<path d="M494.522 59.4686V10.0369H509.142V11.6261H496.027V32.6199H506.134V34.2091H496.027V57.8795H509.142V59.4686H494.522Z" fill="#667085"/>
<path d="M515.438 59.4686V10.0369H531.021V59.4686H529.456V11.7097H517.003V59.4686H515.438Z" fill="#667085"/>
<path d="M536.919 59.4686L545.883 10.0369H547.026L555.93 59.4686H554.487L552.02 46.2534H540.649L538.243 59.4686H536.919ZM540.83 44.8315H551.9L546.425 14.8044L540.83 44.8315Z" fill="#667085"/>
<path d="M561.853 59.4686V10.0369H571.72C573.485 10.0369 574.989 10.6503 576.232 11.877C577.516 13.048 578.157 15.139 578.157 18.1501V27.6015C578.157 29.2743 577.957 30.8356 577.556 32.2854C577.195 33.7351 576.453 34.9061 575.33 35.7983C574.247 36.6904 572.622 37.1365 570.456 37.1365H563.357V59.4686H561.853ZM563.357 35.631H570.396C572.482 35.631 574.046 34.934 575.089 33.54C576.172 32.0902 576.713 29.9713 576.713 27.1833V18.5683C576.713 16.1706 576.192 14.4141 575.149 13.2989C574.146 12.1279 572.983 11.5424 571.66 11.5424H563.357V35.631Z" fill="#667085"/>
<path d="M581.395 59.4686L590.359 10.0369H591.502L600.406 59.4686H598.962L596.496 46.2534H585.125L582.718 59.4686H581.395ZM585.305 44.8315H596.375L590.901 14.8044L585.305 44.8315Z" fill="#667085"/>
<path d="M608.675 59.4686V11.6261H602.358V10.0369H616.617V11.6261H610.119V59.4686H608.675Z" fill="#667085"/>
<path d="M620.572 59.8032C620.171 59.8032 619.79 59.7474 619.429 59.6359C619.108 59.5802 618.807 59.5244 618.527 59.4686V57.9631C618.727 58.0188 618.968 58.0746 619.249 58.1304C619.569 58.1861 619.93 58.214 620.332 58.214C620.813 58.214 621.334 58.0746 621.896 57.7958C622.457 57.517 622.999 57.0152 623.52 56.2903C623.881 55.7327 624.182 55.0635 624.423 54.2829C624.703 53.5022 624.924 52.5822 625.084 51.5228L617.925 10.0369H619.489L626.047 48.5953H625.927L632.605 10.0369H634.049L627.13 49.9336C626.488 53.5023 625.706 56.0394 624.784 57.5449C623.861 59.0504 622.457 59.8032 620.572 59.8032Z" fill="#667085"/>
<path d="M651.334 59.4686V10.0369H666.916V59.4686H665.352V11.7097H652.898V59.4686H651.334Z" fill="#667085"/>
<path d="M676.304 59.4686V10.0369H686.17C687.935 10.0369 689.439 10.6503 690.683 11.877C691.966 13.048 692.608 15.139 692.608 18.1501V27.6015C692.608 29.2743 692.407 30.8356 692.006 32.2854C691.645 33.7351 690.903 34.9061 689.78 35.7983C688.697 36.6904 687.073 37.1365 684.907 37.1365H677.808V59.4686H676.304ZM677.808 35.631H684.847C686.932 35.631 688.497 34.934 689.54 33.54C690.622 32.0902 691.164 29.9713 691.164 27.1833V18.5683C691.164 16.1706 690.643 14.4141 689.6 13.2989C688.597 12.1279 687.434 11.5424 686.11 11.5424H677.808V35.631Z" fill="#667085"/>
<path d="M706.855 60.4723C705.291 60.4723 703.887 60.2214 702.644 59.7195C701.441 59.2177 700.478 58.1861 699.756 56.6248C699.034 55.0635 698.673 52.6658 698.673 49.4317V20.2411C698.673 17.007 699.034 14.6371 699.756 13.1316C700.478 11.5703 701.461 10.5666 702.704 10.1205C703.987 9.61869 705.411 9.36777 706.976 9.36777C708.58 9.36777 709.984 9.61869 711.187 10.1205C712.43 10.6224 713.413 11.654 714.135 13.2153C714.857 14.7208 715.218 17.0627 715.218 20.2411V49.4317C715.218 52.7216 714.857 55.1472 714.135 56.7085C713.413 58.2698 712.43 59.2735 711.187 59.7195C709.944 60.2214 708.5 60.4723 706.855 60.4723ZM706.915 58.9668C708.279 58.9668 709.462 58.7716 710.465 58.3813C711.508 57.9352 712.31 57.043 712.871 55.7048C713.473 54.3108 713.774 52.1919 713.774 49.3481V20.492C713.774 17.6482 713.473 15.5572 712.871 14.2189C712.31 12.8249 711.508 11.9328 710.465 11.5424C709.422 11.0964 708.239 10.8733 706.915 10.8733C705.552 10.8733 704.348 11.0964 703.306 11.5424C702.303 11.9328 701.501 12.8249 700.899 14.2189C700.338 15.5572 700.057 17.6482 700.057 20.492V49.3481C700.057 52.1919 700.338 54.3108 700.899 55.7048C701.501 57.043 702.303 57.9352 703.306 58.3813C704.348 58.7716 705.552 58.9668 706.915 58.9668Z" fill="#667085"/>
<path d="M723.952 59.4686V10.0369H725.396V33.2054H727.622L737.669 10.0369H739.414L729.126 33.8745L739.775 59.4686H737.91L727.803 34.8782H725.396V59.4686H723.952Z" fill="#667085"/>
<path d="M751.86 60.4723C750.296 60.4723 748.892 60.2214 747.648 59.7195C746.445 59.2177 745.483 58.1861 744.761 56.6248C744.039 55.0635 743.678 52.6658 743.678 49.4317V20.2411C743.678 17.007 744.039 14.6371 744.761 13.1316C745.483 11.5703 746.465 10.5666 747.709 10.1205C748.992 9.61869 750.416 9.36777 751.98 9.36777C753.585 9.36777 754.988 9.61869 756.192 10.1205C757.435 10.6224 758.418 11.654 759.14 13.2153C759.862 14.7208 760.222 17.0627 760.222 20.2411V49.4317C760.222 52.7216 759.862 55.1472 759.14 56.7085C758.418 58.2698 757.435 59.2735 756.192 59.7195C754.948 60.2214 753.504 60.4723 751.86 60.4723ZM751.92 58.9668C753.284 58.9668 754.467 58.7716 755.47 58.3813C756.512 57.9352 757.315 57.043 757.876 55.7048C758.478 54.3108 758.779 52.1919 758.779 49.3481V20.492C758.779 17.6482 758.478 15.5572 757.876 14.2189C757.315 12.8249 756.512 11.9328 755.47 11.5424C754.427 11.0964 753.244 10.8733 751.92 10.8733C750.556 10.8733 749.353 11.0964 748.31 11.5424C747.308 11.9328 746.505 12.8249 745.904 14.2189C745.342 15.5572 745.061 17.6482 745.061 20.492V49.3481C745.061 52.1919 745.342 54.3108 745.904 55.7048C746.505 57.043 747.308 57.9352 748.31 58.3813C749.353 58.7716 750.556 58.9668 751.92 58.9668Z" fill="#667085"/>
<path d="M768.957 59.4686V10.0369H770.401V32.6199H784.178V10.0369H785.562V59.4686H784.178V34.2927H770.401V59.4686H768.957Z" fill="#667085"/>
<path d="M802.446 60.4723C800.882 60.4723 799.478 60.2214 798.235 59.7195C797.031 59.2177 796.069 58.1861 795.347 56.6248C794.625 55.0635 794.264 52.6658 794.264 49.4317V20.2411C794.264 17.007 794.625 14.6371 795.347 13.1316C796.069 11.5703 797.051 10.5666 798.295 10.1205C799.578 9.61869 801.002 9.36777 802.566 9.36777C804.171 9.36777 805.574 9.61869 806.778 10.1205C808.021 10.6224 809.004 11.654 809.726 13.2153C810.448 14.7208 810.809 17.0627 810.809 20.2411V27.7688H809.365V20.4084C809.365 17.5646 809.064 15.4736 808.462 14.1353C807.901 12.7413 807.099 11.8491 806.056 11.4588C805.013 11.0127 803.83 10.7897 802.506 10.7897C801.183 10.7897 799.999 11.0127 798.957 11.4588C797.914 11.8491 797.091 12.7413 796.49 14.1353C795.928 15.4736 795.648 17.5646 795.648 20.4084V49.3481C795.648 52.1919 795.928 54.3108 796.49 55.7048C797.091 57.043 797.914 57.9352 798.957 58.3813C799.999 58.7716 801.183 58.9668 802.506 58.9668C803.87 58.9668 805.053 58.7716 806.056 58.3813C807.099 57.9352 807.901 57.043 808.462 55.7048C809.064 54.3108 809.365 52.1919 809.365 49.3481V43.4932H810.809V49.4317C810.809 52.7216 810.448 55.1472 809.726 56.7085C809.004 58.2698 808.021 59.2735 806.778 59.7195C805.534 60.2214 804.09 60.4723 802.446 60.4723Z" fill="#667085"/>
<path d="M817.629 59.8032C817.228 59.8032 816.847 59.7474 816.486 59.6359C816.165 59.5802 815.864 59.5244 815.584 59.4686V57.9631C815.784 58.0188 816.025 58.0746 816.306 58.1304C816.626 58.1861 816.987 58.214 817.388 58.214C817.87 58.214 818.391 58.0746 818.953 57.7958C819.514 57.517 820.056 57.0152 820.577 56.2903C820.938 55.7327 821.239 55.0635 821.48 54.2829C821.76 53.5022 821.981 52.5822 822.141 51.5228L814.982 10.0369H816.546L823.104 48.5953H822.984L829.662 10.0369H831.106L824.187 49.9336C823.545 53.5023 822.763 56.0394 821.841 57.5449C820.918 59.0504 819.514 59.8032 817.629 59.8032Z" fill="#667085"/>
<path d="M832.916 59.4686V57.9631C833.718 57.9631 834.36 57.517 834.841 56.6248C835.322 55.6769 835.623 54.0599 835.743 51.7737L837.729 10.0369H853.13V59.4686H851.626V11.7097H839.173L837.127 52.5264C837.087 53.084 837.007 53.7532 836.886 54.5338C836.806 55.2587 836.626 55.9836 836.345 56.7085C836.104 57.3776 835.743 57.991 835.262 58.5486C834.821 59.0504 834.239 59.3571 833.517 59.4686H832.916Z" fill="#667085"/>
<path d="M860.788 59.4686V10.2042H862.232V23.0849H868.669C870.674 23.0849 872.198 23.5309 873.241 24.4231C874.324 25.2595 875.066 26.4863 875.467 28.1033C875.909 29.7204 876.129 31.6999 876.129 34.0418V47.6753C876.129 49.6269 876.009 51.3555 875.768 52.861C875.528 54.3108 875.126 55.5375 874.565 56.5412C874.044 57.4891 873.301 58.214 872.339 58.7159C871.416 59.2177 870.253 59.4686 868.849 59.4686H860.788ZM862.232 57.9631H868.729C870.454 57.9631 871.737 57.517 872.58 56.6248C873.422 55.6769 873.983 54.4223 874.264 52.861C874.545 51.2439 874.685 49.4596 874.685 47.508V34.6273C874.685 32.9545 874.565 31.3653 874.324 29.8598C874.084 28.2985 873.522 27.0439 872.64 26.0959C871.797 25.0922 870.454 24.5904 868.609 24.5904H862.232V57.9631Z" fill="#667085"/>
<path d="M886.106 59.4686V11.6261H879.789V10.0369H894.048V11.6261H887.55V59.4686H886.106Z" fill="#667085"/>
<path d="M898.003 59.8032C897.602 59.8032 897.221 59.7474 896.86 59.6359C896.539 59.5802 896.238 59.5244 895.957 59.4686V57.9631C896.158 58.0188 896.399 58.0746 896.68 58.1304C897 58.1861 897.361 58.214 897.762 58.214C898.244 58.214 898.765 58.0746 899.327 57.7958C899.888 57.517 900.43 57.0152 900.951 56.2903C901.312 55.7327 901.613 55.0635 901.853 54.2829C902.134 53.5022 902.355 52.5822 902.515 51.5228L895.356 10.0369H896.92L903.478 48.5953H903.357L910.036 10.0369H911.479L904.561 49.9336C903.919 53.5023 903.137 56.0394 902.214 57.5449C901.292 59.0504 899.888 59.8032 898.003 59.8032Z" fill="#667085"/>
<path d="M916.779 59.4686V10.0369H918.223V55.0357L932.121 10.0369H933.565V59.4686H932.121V15.3899L918.403 59.4686H916.779ZM925.142 6.7749C923.858 6.7749 922.835 6.41246 922.073 5.68758C921.311 4.90693 920.75 3.98688 920.389 2.92743C920.068 1.86797 919.887 0.892167 919.847 0H920.99C921.191 1.78434 921.652 3.12259 922.374 4.01476C923.136 4.90693 924.059 5.35301 925.142 5.35301C926.305 5.35301 927.247 4.93481 927.969 4.0984C928.731 3.20623 929.193 1.8401 929.353 0H930.496C930.416 0.892167 930.195 1.86797 929.834 2.92743C929.473 3.98688 928.912 4.90693 928.15 5.68758C927.428 6.41246 926.425 6.7749 925.142 6.7749Z" fill="#667085"/>
<path d="M945.27 59.4686V11.6261H938.953V10.0369H953.212V11.6261H946.714V59.4686H945.27Z" fill="#667085"/>
<path d="M958.611 59.4686V10.0369H973.231V11.6261H960.115V32.6199H970.222V34.2091H960.115V57.8795H973.231V59.4686H958.611Z" fill="#667085"/>
<path d="M987.047 60.4723C985.483 60.4723 984.079 60.2214 982.836 59.7195C981.633 59.2177 980.67 58.1861 979.948 56.6248C979.226 55.0635 978.865 52.6658 978.865 49.4317V20.2411C978.865 17.007 979.226 14.6371 979.948 13.1316C980.67 11.5703 981.653 10.5666 982.896 10.1205C984.18 9.61869 985.604 9.36777 987.168 9.36777C988.772 9.36777 990.176 9.61869 991.379 10.1205C992.622 10.6224 993.605 11.654 994.327 13.2153C995.049 14.7208 995.41 17.0627 995.41 20.2411V27.7688H993.966V20.4084C993.966 17.5646 993.665 15.4736 993.064 14.1353C992.502 12.7413 991.7 11.8491 990.657 11.4588C989.614 11.0127 988.431 10.7897 987.107 10.7897C985.784 10.7897 984.601 11.0127 983.558 11.4588C982.515 11.8491 981.693 12.7413 981.091 14.1353C980.53 15.4736 980.249 17.5646 980.249 20.4084V49.3481C980.249 52.1919 980.53 54.3108 981.091 55.7048C981.693 57.043 982.515 57.9352 983.558 58.3813C984.601 58.7716 985.784 58.9668 987.107 58.9668C988.471 58.9668 989.654 58.7716 990.657 58.3813C991.7 57.9352 992.502 57.043 993.064 55.7048C993.665 54.3108 993.966 52.1919 993.966 49.3481V43.4932H995.41V49.4317C995.41 52.7216 995.049 55.1472 994.327 56.7085C993.605 58.2698 992.622 59.2735 991.379 59.7195C990.136 60.2214 988.692 60.4723 987.047 60.4723Z" fill="#667085"/>
<path d="M1003.67 59.4686V10.2042H1005.12V23.0849H1011.56C1013.56 23.0849 1015.09 23.5309 1016.13 24.4231C1017.21 25.2595 1017.95 26.4863 1018.35 28.1033C1018.8 29.7204 1019.02 31.6999 1019.02 34.0418V47.6753C1019.02 49.6269 1018.9 51.3555 1018.66 52.861C1018.41 54.3108 1018.01 55.5375 1017.45 56.5412C1016.93 57.4891 1016.19 58.214 1015.23 58.7159C1014.3 59.2177 1013.14 59.4686 1011.74 59.4686H1003.67ZM1005.12 57.9631H1011.62C1013.34 57.9631 1014.62 57.517 1015.47 56.6248C1016.31 55.6769 1016.87 54.4223 1017.15 52.861C1017.43 51.2439 1017.57 49.4596 1017.57 47.508V34.6273C1017.57 32.9545 1017.45 31.3653 1017.21 29.8598C1016.97 28.2985 1016.41 27.0439 1015.53 26.0959C1014.68 25.0922 1013.34 24.5904 1011.5 24.5904H1005.12V57.9631Z" fill="#667085"/>
<path d="M1044.77 60.1378C1042.6 60.1378 1040.88 59.5801 1039.59 58.4649C1038.35 57.3497 1037.45 55.8442 1036.89 53.9483C1036.37 52.0525 1036.11 49.9893 1036.11 47.7589V43.326H1037.67V48.428C1037.67 51.4949 1038.29 53.9205 1039.53 55.7048C1040.78 57.4334 1042.52 58.3534 1044.77 58.4649C1046.89 58.4649 1048.6 57.6006 1049.88 55.8721C1051.21 54.0877 1051.87 51.6343 1051.87 48.5117V44.0787C1051.87 41.1234 1051.21 38.8093 1049.88 37.1365C1048.56 35.4637 1046.81 34.5715 1044.65 34.46H1040.68V32.5363H1044.65C1045.69 32.5363 1046.69 32.2296 1047.66 31.6162C1048.62 31.0029 1049.42 30.1107 1050.06 28.9397C1050.54 28.0476 1050.91 27.0996 1051.15 26.0959C1051.39 25.0365 1051.51 23.9213 1051.51 22.7503V20.2411C1051.51 17.7876 1050.97 15.6966 1049.88 13.968C1048.8 12.2394 1047.1 11.3751 1044.77 11.3751C1042.44 11.3751 1040.74 12.2394 1039.66 13.968C1038.57 15.6966 1038.03 17.8155 1038.03 20.3247V23.9213H1036.41V20.9938C1036.41 17.4809 1037.07 14.7208 1038.39 12.7134C1039.72 10.706 1041.84 9.70234 1044.77 9.70234C1047.7 9.70234 1049.82 10.706 1051.15 12.7134C1052.47 14.7208 1053.13 17.4809 1053.13 20.9938V22.583C1053.13 25.5383 1052.59 27.9082 1051.51 29.6925C1050.46 31.4768 1049.18 32.7593 1047.66 33.54C1049.62 34.1533 1051.07 35.4637 1051.99 37.4711C1052.95 39.4785 1053.43 41.9041 1053.43 44.7478V47.7589C1053.43 49.9893 1053.17 52.0525 1052.65 53.9483C1052.13 55.8442 1051.23 57.3497 1049.94 58.4649C1048.7 59.5801 1046.97 60.1378 1044.77 60.1378Z" fill="#667085"/>
<path d="M1069.28 59.4686V57.9631C1070.08 57.9631 1070.72 57.517 1071.2 56.6248C1071.68 55.6769 1071.99 54.0599 1072.11 51.7737L1074.09 10.0369H1089.49V59.4686H1087.99V11.7097H1075.54L1073.49 52.5264C1073.45 53.084 1073.37 53.7532 1073.25 54.5338C1073.17 55.2587 1072.99 55.9836 1072.71 56.7085C1072.47 57.3776 1072.11 57.991 1071.62 58.5486C1071.18 59.0504 1070.6 59.3571 1069.88 59.4686H1069.28Z" fill="#667085"/>
<path d="M1097.15 59.4686V10.0369H1098.59V59.4686H1097.15Z" fill="#667085"/>
<path d="M1107.96 59.4686V10.0369H1109.4V33.2054H1111.63L1121.68 10.0369H1123.42L1113.13 33.8745L1123.78 59.4686H1121.92L1111.81 34.8782H1109.4V59.4686H1107.96Z" fill="#667085"/>
<path d="M1124.86 59.4686L1133.82 10.0369H1134.97L1143.87 59.4686H1142.43L1139.96 46.2534H1128.59L1126.18 59.4686H1124.86ZM1128.77 44.8315H1139.84L1134.36 14.8044L1128.77 44.8315Z" fill="#667085"/>
<path d="M1149.79 59.4686V10.0369H1159.66C1161.42 10.0369 1162.93 10.6503 1164.17 11.877C1165.46 13.048 1166.1 15.139 1166.1 18.1501V27.6015C1166.1 29.2743 1165.9 30.8356 1165.5 32.2854C1165.13 33.7351 1164.39 34.9061 1163.27 35.7983C1162.19 36.6904 1160.56 37.1365 1158.4 37.1365H1151.3V59.4686H1149.79ZM1151.3 35.631H1158.34C1160.42 35.631 1161.99 34.934 1163.03 33.54C1164.11 32.0902 1164.65 29.9713 1164.65 27.1833V18.5683C1164.65 16.1706 1164.13 14.4141 1163.09 13.2989C1162.09 12.1279 1160.92 11.5424 1159.6 11.5424H1151.3V35.631Z" fill="#667085"/>
<path d="M1172.82 59.4686V10.0369H1187.44V11.6261H1174.33V32.6199H1184.44V34.2091H1174.33V57.8795H1187.44V59.4686H1172.82Z" fill="#667085"/>
<path d="M1193.74 59.4686V10.0369H1195.12L1204.87 56.2903L1214.86 10.0369H1216V59.4686H1214.62V17.23L1205.53 59.4686H1204.27L1195.18 17.23V59.4686H1193.74Z" fill="#667085"/>
</svg>