<svg width="50" height="53" viewBox="0 0 50 53" fill="none" xmlns="http://www.w3.org/2000/svg">
<path d="M26.2232 15.1481C19.6575 15.1481 14.3349 20.4707 14.3349 27.0364L14.3349 41.7632C14.3349 47.6693 19.1226 52.457 25.0287 52.457C30.9347 52.457 35.7225 47.6693 35.7225 41.7632L35.7225 38.8194C35.7225 38.1026 36.3036 37.5214 37.0204 37.5214L38.8133 37.5214C44.9915 37.5214 50 32.513 50 26.3348C50 20.1565 44.9915 15.1481 38.8133 15.1481L26.2232 15.1481Z" fill="#2FD3AE"/>
<path fill-rule="evenodd" clip-rule="evenodd" d="M24.9713 0.152344C30.8774 0.152344 35.6651 4.94013 35.6651 10.8462V31.5171C35.6651 34.8 33.0038 37.4613 29.7209 37.4613H11.1867C5.00845 37.4613 0 32.4529 0 26.2746C0 20.0964 5.00845 15.0879 11.1867 15.0879H12.9796C13.6964 15.0879 14.2775 14.5068 14.2775 13.79V10.8461C14.2775 4.94012 19.0653 0.152344 24.9713 0.152344ZM29.8738 13.1685C27.0454 9.77818 25.1518 8.56151 21.1009 7.89006C21.1009 7.89006 24.2546 4.711 27.6949 7.0503C31.1353 9.38961 29.8738 13.1685 29.8738 13.1685Z" fill="#011D71"/>
</svg>
