<svg xmlns="http://www.w3.org/2000/svg" width="1216" height="100" viewBox="0 0 1216 100" fill="none"><link xmlns="" type="text/css" rel="stylesheet" id="dark-mode-custom-link"/><link xmlns="" type="text/css" rel="stylesheet" id="dark-mode-general-link"/><style xmlns="" lang="en" type="text/css" id="dark-mode-custom-style"/><style xmlns="" lang="en" type="text/css" id="dark-mode-native-style"/><style xmlns="" lang="en" type="text/css" id="dark-mode-native-sheet"/>
<path d="M8.82355 87.7217C7.13669 87.7217 5.62285 87.3124 4.28201 86.4939C2.98443 85.6753 1.94637 83.9927 1.16782 81.4461C0.389274 78.8995 0 74.9886 0 69.7135V22.101C0 16.8258 0.389274 12.9604 1.16782 10.5048C1.94637 7.95816 3.00606 6.32106 4.34689 5.59345C5.73098 4.7749 7.26645 4.36562 8.9533 4.36562C10.6834 4.36562 12.1973 4.7749 13.4948 5.59345C14.8357 6.412 15.8954 8.09459 16.6739 10.6412C17.4525 13.0969 17.8417 16.9168 17.8417 22.101V34.3793H16.2846V22.3738C16.2846 17.7353 15.9602 14.3247 15.3114 12.1419C14.7059 9.86812 13.8409 8.41292 12.7163 7.77627C11.5917 7.04866 10.3158 6.68486 8.88843 6.68486C7.46109 6.68486 6.18513 7.04866 5.06056 7.77627C3.93599 8.41292 3.04931 9.86812 2.40052 12.1419C1.79499 14.3247 1.49222 17.7353 1.49222 22.3738V69.5771C1.49222 74.2156 1.79499 77.6717 2.40052 79.9454C3.04931 82.1282 3.93599 83.5834 5.06056 84.311C6.18513 84.9477 7.46109 85.266 8.88843 85.266C10.359 85.266 11.635 84.9477 12.7163 84.311C13.8409 83.5834 14.7059 82.1282 15.3114 79.9454C15.9602 77.6717 16.2846 74.2156 16.2846 69.5771V60.0273H17.8417V69.7135C17.8417 75.0796 17.4525 79.0359 16.6739 81.5825C15.8954 84.1291 14.8357 85.7663 13.4948 86.4939C12.154 87.3124 10.5969 87.7217 8.82355 87.7217Z" fill="#667085"/>
<path d="M21.6934 86.0846L31.3604 5.45702H32.5931L42.1952 86.0846H40.6381L37.978 64.5293H25.7159L23.1208 86.0846H21.6934ZM25.9105 62.2101H37.8483L31.9443 13.2333L25.9105 62.2101Z" fill="#667085"/>
<path d="M47.2846 86.0846V5.45702H48.7769L59.2873 80.9004L70.0572 5.45702H71.2899V86.0846H69.7977V17.1896L60.0009 86.0846H58.6385L48.8417 17.1896V86.0846H47.2846Z" fill="#667085"/>
<path d="M88.2471 87.7217C86.5603 87.7217 85.0464 87.3124 83.7056 86.4939C82.408 85.6753 81.3699 83.9927 80.5914 81.4461C79.8128 78.8995 79.4236 74.9886 79.4236 69.7135V22.101C79.4236 16.8258 79.8128 12.9604 80.5914 10.5048C81.3699 7.95816 82.4296 6.32106 83.7705 5.59345C85.1545 4.7749 86.69 4.36562 88.3769 4.36562C90.107 4.36562 91.6208 4.7749 92.9184 5.59345C94.2592 6.412 95.3189 8.09459 96.0975 10.6412C96.876 13.0969 97.2653 16.9168 97.2653 22.101V69.7135C97.2653 75.0796 96.876 79.0359 96.0975 81.5825C95.3189 84.1291 94.2592 85.7663 92.9184 86.4939C91.5776 87.3124 90.0205 87.7217 88.2471 87.7217ZM88.312 85.266C89.7826 85.266 91.0585 84.9477 92.1399 84.311C93.2644 83.5834 94.1295 82.1282 94.735 79.9454C95.3838 77.6717 95.7082 74.2156 95.7082 69.5771V22.5102C95.7082 17.8718 95.3838 14.4611 94.735 12.2783C94.1295 10.0045 93.2644 8.54934 92.1399 7.91269C91.0153 7.18508 89.7393 6.82128 88.312 6.82128C86.8414 6.82128 85.5438 7.18508 84.4193 7.91269C83.3379 8.54934 82.4729 10.0045 81.8241 12.2783C81.2186 14.4611 80.9158 17.8718 80.9158 22.5102V69.5771C80.9158 74.2156 81.2186 77.6717 81.8241 79.9454C82.4729 82.1282 83.3379 83.5834 84.4193 84.311C85.5438 84.9477 86.8414 85.266 88.312 85.266Z" fill="#667085"/>
<path d="M101.624 86.0846V83.6289C102.489 83.6289 103.181 82.9013 103.7 81.4461C104.219 79.8999 104.543 77.2624 104.673 73.5334L106.814 5.45702H123.423V86.0846H121.801V8.18554H108.371L106.165 74.7613C106.122 75.6708 106.036 76.7622 105.906 78.0355C105.819 79.2178 105.625 80.4002 105.322 81.5825C105.062 82.6739 104.673 83.6744 104.154 84.5839C103.678 85.4025 103.051 85.9027 102.273 86.0846H101.624Z" fill="#667085"/>
<path d="M130.383 86.0846V5.45702H131.94V86.0846H130.383Z" fill="#667085"/>
<path d="M140.743 86.0846V5.45702H142.3V43.2469H144.701L155.536 5.45702H157.417L146.323 44.3383L157.807 86.0846H155.795L144.896 45.9754H142.3V86.0846H140.743Z" fill="#667085"/>
<path d="M159.874 86.6303C159.442 86.6303 159.031 86.5393 158.641 86.3574C158.295 86.2665 157.971 86.1755 157.668 86.0846V83.6289C157.884 83.7199 158.144 83.8108 158.447 83.9018C158.793 83.9927 159.182 84.0382 159.615 84.0382C160.134 84.0382 160.696 83.8108 161.301 83.3561C161.907 82.9013 162.491 82.0828 163.053 80.9004C163.442 79.9909 163.767 78.8995 164.026 77.6262C164.329 76.3529 164.567 74.8522 164.74 73.1241L157.019 5.45702H158.706L165.778 68.3492H165.648L172.85 5.45702H174.407L166.946 70.5321C166.254 76.3529 165.41 80.4911 164.416 82.9468C163.421 85.4025 161.907 86.6303 159.874 86.6303Z" fill="#667085"/>
<path d="M178.824 86.0846V5.45702H189.4C191.303 5.45702 192.946 6.45748 194.33 8.45839C195.714 10.3683 196.407 13.779 196.407 18.6903V28.9222C196.407 31.5598 196.212 33.879 195.823 35.8799C195.477 37.7899 195.022 39.3361 194.46 40.5184C193.768 41.8827 192.968 42.7467 192.06 43.1105C191.151 43.4743 190.438 43.6562 189.919 43.6562V43.2469C190.913 43.2469 191.843 43.4743 192.708 43.9291C193.617 44.2929 194.33 45.0659 194.849 46.2483C195.455 47.6126 195.909 49.2497 196.212 51.1596C196.558 52.9786 196.731 55.116 196.731 57.5716V69.7135C196.731 74.4429 196.385 77.99 195.693 80.3547C195.044 82.6285 194.114 84.1746 192.903 84.9932C191.735 85.7208 190.373 86.0846 188.816 86.0846H178.824ZM180.381 83.6289H188.751C190.048 83.6289 191.173 83.3106 192.124 82.6739C193.119 81.9463 193.876 80.5821 194.395 78.5812C194.914 76.4893 195.174 73.397 195.174 69.3042V57.2988C195.174 52.3874 194.482 49.1132 193.098 47.4761C191.714 45.839 190.005 45.0205 187.972 45.0205H180.381V83.6289ZM180.381 42.4284H187.907C190.2 42.4284 191.93 41.246 193.098 38.8813C194.266 36.5166 194.849 33.3333 194.849 29.3315V19.236C194.849 15.4161 194.287 12.5966 193.163 10.7776C192.081 8.86767 190.805 7.91269 189.335 7.91269H180.381V42.4284Z" fill="#667085"/>
<path d="M200.754 86.0846L210.421 5.45702H211.654L221.256 86.0846H219.699L217.039 64.5293H204.777L202.182 86.0846H200.754ZM204.972 62.2101H216.909L211.005 13.2333L204.972 62.2101Z" fill="#667085"/>
<path d="M226.346 86.0846V5.45702H227.903V42.292H242.76V5.45702H244.252V86.0846H242.76V45.0205H227.903V86.0846H226.346Z" fill="#667085"/>
<path d="M253.052 86.0846V5.45702H254.61V42.292H269.467V5.45702H270.959V86.0846H269.467V45.0205H254.61V86.0846H253.052Z" fill="#667085"/>
<path d="M296.239 86.0846H294.682V47.0668H288.129C286.528 47.0668 285.361 48.2947 284.625 50.7503C283.933 53.206 283.371 55.8436 282.938 58.663L278.916 86.0846H277.229L281.381 58.3902C281.987 54.2065 282.636 51.1141 283.328 49.1132C284.063 47.0214 285.123 46.0209 286.507 46.1119V46.3847C284.258 46.3847 282.376 45.2478 280.862 42.9741C279.392 40.7003 278.656 37.0623 278.656 32.06V18.6903C278.656 13.779 279.348 10.3683 280.733 8.45839C282.117 6.45748 283.739 5.45702 285.598 5.45702H296.239V86.0846ZM294.682 44.4748V7.91269H286.053C284.106 7.91269 282.636 8.86767 281.641 10.7776C280.689 12.6876 280.213 15.507 280.213 19.236V30.9686C280.213 35.2433 280.711 38.563 281.706 40.9277C282.744 43.2924 284.517 44.4748 287.026 44.4748H294.682Z" fill="#667085"/>
<path d="M316.7 86.0846V5.45702H318.192L328.702 80.9004L339.472 5.45702H340.705V86.0846H339.213V17.1896L329.416 86.0846H328.054L318.257 17.1896V86.0846H316.7Z" fill="#667085"/>
<path d="M357.662 87.7217C355.975 87.7217 354.462 87.3124 353.121 86.4939C351.823 85.6753 350.785 83.9927 350.007 81.4461C349.228 78.8995 348.839 74.9886 348.839 69.7135V22.101C348.839 16.8258 349.228 12.9604 350.007 10.5048C350.785 7.95816 351.845 6.32106 353.186 5.59345C354.57 4.7749 356.105 4.36562 357.792 4.36562C359.522 4.36562 361.036 4.7749 362.334 5.59345C363.674 6.412 364.734 8.09459 365.513 10.6412C366.291 13.0969 366.68 16.9168 366.68 22.101V69.7135C366.68 75.0796 366.291 79.0359 365.513 81.5825C364.734 84.1291 363.674 85.7663 362.334 86.4939C360.993 87.3124 359.436 87.7217 357.662 87.7217ZM357.727 85.266C359.198 85.266 360.474 84.9477 361.555 84.311C362.68 83.5834 363.545 82.1282 364.15 79.9454C364.799 77.6717 365.123 74.2156 365.123 69.5771V22.5102C365.123 17.8718 364.799 14.4611 364.15 12.2783C363.545 10.0045 362.68 8.54934 361.555 7.91269C360.43 7.18508 359.155 6.82128 357.727 6.82128C356.257 6.82128 354.959 7.18508 353.834 7.91269C352.753 8.54934 351.888 10.0045 351.239 12.2783C350.634 14.4611 350.331 17.8718 350.331 22.5102V69.5771C350.331 74.2156 350.634 77.6717 351.239 79.9454C351.888 82.1282 352.753 83.5834 353.834 84.311C354.959 84.9477 356.257 85.266 357.727 85.266Z" fill="#667085"/>
<path d="M369.367 86.0846L380.916 44.3383L369.822 5.45702H371.573L382.408 43.2469H384.484V5.59345H386.106V43.2469H388.117L398.887 5.45702H400.769L389.61 44.3383L401.158 86.0846H399.212L388.182 45.839H386.106V86.0846H384.484V45.839H382.343L371.249 86.0846H369.367Z" fill="#667085"/>
<path d="M405.184 86.0846V5.45702H420.949V8.04911H406.806V42.292H417.705V44.884H406.806V83.4925H420.949V86.0846H405.184Z" fill="#667085"/>
<path d="M438.069 86.0846V5.45702H454.094V8.18554H439.626V26.7394H446.633C448.753 26.7394 450.375 27.467 451.499 28.9222C452.667 30.2865 453.467 32.2874 453.9 34.925C454.375 37.5625 454.613 40.7913 454.613 44.6112V66.8486C454.613 70.0318 454.484 72.8513 454.224 75.307C453.965 77.6717 453.532 79.6726 452.926 81.3097C452.364 82.8558 451.564 84.0382 450.526 84.8568C449.531 85.6753 448.277 86.0846 446.763 86.0846H438.069ZM446.633 83.6289C448.493 83.6289 449.877 82.9013 450.785 81.4461C451.694 79.8999 452.299 77.8536 452.602 75.307C452.905 72.7603 453.056 69.9409 453.056 66.8486V45.5662C453.056 42.8377 452.927 40.2456 452.667 37.7899C452.407 35.2433 451.802 33.1969 450.85 31.6507C449.942 30.0136 448.493 29.1951 446.503 29.1951H439.626V83.6289H446.633Z" fill="#667085"/>
<path d="M459.988 86.6303C459.555 86.6303 459.144 86.5393 458.755 86.3574C458.409 86.2665 458.085 86.1755 457.782 86.0846V83.6289C457.998 83.7199 458.258 83.8108 458.56 83.9018C458.906 83.9927 459.296 84.0382 459.728 84.0382C460.247 84.0382 460.809 83.8108 461.415 83.3561C462.021 82.9013 462.604 82.0828 463.167 80.9004C463.556 79.9909 463.88 78.8995 464.14 77.6262C464.443 76.3529 464.681 74.8522 464.854 73.1241L457.133 5.45702H458.82L465.892 68.3492H465.762L472.963 5.45702H474.521L467.059 70.5321C466.367 76.3529 465.524 80.4911 464.529 82.9468C463.534 85.4025 462.021 86.6303 459.988 86.6303Z" fill="#667085"/>
<path d="M481.468 86.0846V8.04911H474.656V5.45702H490.032V8.04911H483.025V86.0846H481.468Z" fill="#667085"/>
<path d="M494.557 86.0846V5.45702H496.114V78.854L511.101 5.45702H512.658V86.0846H511.101V14.1883L496.309 86.0846H494.557Z" fill="#667085"/>
<path d="M533.081 86.0846V5.45702H534.703V83.4925H548.004V5.45702H549.626V83.4925H562.926V5.45702H564.548V86.0846H533.081Z" fill="#667085"/>
<path d="M573.347 86.0846V5.45702H574.904V43.2469H577.305L588.139 5.45702H590.021L578.927 44.3383L590.41 86.0846H588.399L577.499 45.9754H574.904V86.0846H573.347Z" fill="#667085"/>
<path d="M594.035 86.0846V5.45702H595.592V86.0846H594.035Z" fill="#667085"/>
<path d="M599.919 100V83.6289H602.903C603.941 83.447 604.763 82.492 605.368 80.764C605.974 79.0359 606.363 75.8072 606.536 71.0778C606.666 67.0759 606.796 62.9377 606.925 58.663C607.055 54.3884 607.185 50.0682 607.315 45.7026C607.488 41.337 607.639 36.9259 607.769 32.4693C607.899 28.0127 608.028 23.5107 608.158 18.9632C608.331 14.4156 608.504 9.91359 608.677 5.45702H623.534V83.6289H628.725V100H627.168V86.221H601.476V100H599.919ZM606.471 83.6289H621.913V8.18554H610.234C609.888 18.6448 609.542 29.0132 609.196 39.2906C608.893 49.568 608.569 59.8909 608.223 70.2592C608.137 72.3511 608.007 74.7158 607.834 77.3533C607.661 79.9909 607.207 82.0828 606.471 83.6289Z" fill="#667085"/>
<path d="M630 86.0846V83.6289C630.865 83.6289 631.557 82.9013 632.076 81.4461C632.595 79.8999 632.92 77.2624 633.049 73.5334L635.19 5.45702H651.799V86.0846H650.177V8.18554H636.747L634.542 74.7613C634.498 75.6708 634.412 76.7622 634.282 78.0355C634.196 79.2178 634.001 80.4002 633.698 81.5825C633.439 82.6739 633.049 83.6744 632.53 84.5839C632.055 85.4025 631.427 85.9027 630.649 86.0846H630Z" fill="#667085"/>
<path d="M658.759 86.0846V5.45702H660.316V78.854L675.303 5.45702H676.86V86.0846H675.303V14.1883L660.511 86.0846H658.759Z" fill="#667085"/>
<path d="M685.656 86.0846V5.45702H696.231C698.135 5.45702 699.778 6.45748 701.162 8.45839C702.546 10.3683 703.238 13.779 703.238 18.6903V28.9222C703.238 31.5598 703.044 33.879 702.654 35.8799C702.308 37.7899 701.854 39.3361 701.292 40.5184C700.6 41.8827 699.8 42.7467 698.891 43.1105C697.983 43.4743 697.269 43.6562 696.75 43.6562V43.2469C697.745 43.2469 698.675 43.4743 699.54 43.9291C700.449 44.2929 701.162 45.0659 701.681 46.2483C702.287 47.6126 702.741 49.2497 703.044 51.1596C703.39 52.9786 703.563 55.116 703.563 57.5716V69.7135C703.563 74.4429 703.217 77.99 702.525 80.3547C701.876 82.6285 700.946 84.1746 699.735 84.9932C698.567 85.7208 697.205 86.0846 695.647 86.0846H685.656ZM687.213 83.6289H695.583C696.88 83.6289 698.005 83.3106 698.956 82.6739C699.951 81.9463 700.708 80.5821 701.227 78.5812C701.746 76.4893 702.006 73.397 702.006 69.3042V57.2988C702.006 52.3874 701.314 49.1132 699.93 47.4761C698.545 45.839 696.837 45.0205 694.804 45.0205H687.213V83.6289ZM687.213 42.4284H694.739C697.032 42.4284 698.762 41.246 699.93 38.8813C701.097 36.5166 701.681 33.3333 701.681 29.3315V19.236C701.681 15.4161 701.119 12.5966 699.994 10.7776C698.913 8.86767 697.637 7.91269 696.167 7.91269H687.213V42.4284Z" fill="#667085"/>
<path d="M711.349 86.0846V5.45702H712.906V78.854L727.893 5.45702H729.45V86.0846H727.893V14.1883L713.101 86.0846H711.349Z" fill="#667085"/>
<path d="M738.246 86.0846V5.45702H739.738L750.249 80.9004L761.019 5.45702H762.251V86.0846H760.759V17.1896L750.962 86.0846H749.6L739.803 17.1896V86.0846H738.246Z" fill="#667085"/>
<path d="M778.25 100V83.6289H781.234C782.272 83.447 783.094 82.492 783.699 80.764C784.305 79.0359 784.694 75.8072 784.867 71.0778C784.997 67.0759 785.127 62.9377 785.257 58.663C785.386 54.3884 785.516 50.0682 785.646 45.7026C785.819 41.337 785.97 36.9259 786.1 32.4693C786.23 28.0127 786.36 23.5107 786.489 18.9632C786.662 14.4156 786.835 9.91359 787.008 5.45702H801.866V83.6289H807.056V100H805.499V86.221H779.807V100H778.25ZM784.802 83.6289H800.244V8.18554H788.565C788.219 18.6448 787.873 29.0132 787.527 39.2906C787.225 49.568 786.9 59.8909 786.554 70.2592C786.468 72.3511 786.338 74.7158 786.165 77.3533C785.992 79.9909 785.538 82.0828 784.802 83.6289Z" fill="#667085"/>
<path d="M808.331 86.0846V83.6289C809.196 83.6289 809.888 82.9013 810.407 81.4461C810.926 79.8999 811.251 77.2624 811.38 73.5334L813.521 5.45702H830.131V86.0846H828.509V8.18554H815.079L812.873 74.7613C812.829 75.6708 812.743 76.7622 812.613 78.0355C812.527 79.2178 812.332 80.4002 812.029 81.5825C811.77 82.6739 811.38 83.6744 810.861 84.5839C810.386 85.4025 809.758 85.9027 808.98 86.0846H808.331Z" fill="#667085"/>
<path d="M853.57 86.0846H852.013V47.0668H845.46C843.859 47.0668 842.692 48.2947 841.956 50.7503C841.264 53.206 840.702 55.8436 840.269 58.663L836.247 86.0846H834.56L838.712 58.3902C839.318 54.2065 839.967 51.1141 840.659 49.1132C841.394 47.0214 842.454 46.0209 843.838 46.1119V46.3847C841.589 46.3847 839.707 45.2478 838.193 42.9741C836.723 40.7003 835.987 37.0623 835.987 32.06V18.6903C835.987 13.779 836.679 10.3683 838.063 8.45839C839.448 6.45748 841.07 5.45702 842.929 5.45702H853.57V86.0846ZM852.013 44.4748V7.91269H843.384C841.437 7.91269 839.967 8.86767 838.972 10.7776C838.02 12.6876 837.544 15.507 837.544 19.236V30.9686C837.544 35.2433 838.042 38.563 839.037 40.9277C840.075 43.2924 841.848 44.4748 844.357 44.4748H852.013Z" fill="#667085"/>
<path d="M874.031 86.0846V5.45702H884.606C886.509 5.45702 888.153 6.45748 889.537 8.45839C890.921 10.3683 891.613 13.779 891.613 18.6903V28.9222C891.613 31.5598 891.418 33.879 891.029 35.8799C890.683 37.7899 890.229 39.3361 889.667 40.5184C888.975 41.8827 888.174 42.7467 887.266 43.1105C886.358 43.4743 885.644 43.6562 885.125 43.6562V43.2469C886.12 43.2469 887.05 43.4743 887.915 43.9291C888.823 44.2929 889.537 45.0659 890.056 46.2483C890.661 47.6126 891.116 49.2497 891.418 51.1596C891.764 52.9786 891.937 55.116 891.937 57.5716V69.7135C891.937 74.4429 891.591 77.99 890.899 80.3547C890.251 82.6285 889.321 84.1746 888.11 84.9932C886.942 85.7208 885.579 86.0846 884.022 86.0846H874.031ZM875.588 83.6289H883.957C885.255 83.6289 886.38 83.3106 887.331 82.6739C888.326 81.9463 889.083 80.5821 889.602 78.5812C890.121 76.4893 890.38 73.397 890.38 69.3042V57.2988C890.38 52.3874 889.688 49.1132 888.304 47.4761C886.92 45.839 885.212 45.0205 883.179 45.0205H875.588V83.6289ZM875.588 42.4284H883.114C885.406 42.4284 887.136 41.246 888.304 38.8813C889.472 36.5166 890.056 33.3333 890.056 29.3315V19.236C890.056 15.4161 889.494 12.5966 888.369 10.7776C887.288 8.86767 886.012 7.91269 884.541 7.91269H875.588V42.4284Z" fill="#667085"/>
<path d="M895.961 86.0846L905.628 5.45702H906.861L916.463 86.0846H914.906L912.246 64.5293H899.983L897.388 86.0846H895.961ZM900.178 62.2101H912.116L906.212 13.2333L900.178 62.2101Z" fill="#667085"/>
<path d="M921.552 86.0846V5.45702H923.174V83.4925H936.474V5.45702H938.096V83.4925H951.397V5.45702H953.019V86.0846H921.552Z" fill="#667085"/>
<path d="M969.928 87.7217C968.241 87.7217 966.727 87.3124 965.386 86.4939C964.088 85.6753 963.05 83.9927 962.272 81.4461C961.493 78.8995 961.104 74.9886 961.104 69.7135V22.101C961.104 16.8258 961.493 12.9604 962.272 10.5048C963.05 7.95816 964.11 6.32106 965.451 5.59345C966.835 4.7749 968.37 4.36562 970.057 4.36562C971.787 4.36562 973.301 4.7749 974.599 5.59345C975.94 6.412 976.999 8.09459 977.778 10.6412C978.556 13.0969 978.946 16.9168 978.946 22.101V69.7135C978.946 75.0796 978.556 79.0359 977.778 81.5825C976.999 84.1291 975.94 85.7663 974.599 86.4939C973.258 87.3124 971.701 87.7217 969.928 87.7217ZM969.992 85.266C971.463 85.266 972.739 84.9477 973.82 84.311C974.945 83.5834 975.81 82.1282 976.415 79.9454C977.064 77.6717 977.389 74.2156 977.389 69.5771V22.5102C977.389 17.8718 977.064 14.4611 976.415 12.2783C975.81 10.0045 974.945 8.54934 973.82 7.91269C972.696 7.18508 971.42 6.82128 969.992 6.82128C968.522 6.82128 967.224 7.18508 966.1 7.91269C965.018 8.54934 964.153 10.0045 963.505 12.2783C962.899 14.4611 962.596 17.8718 962.596 22.5102V69.5771C962.596 74.2156 962.899 77.6717 963.505 79.9454C964.153 82.1282 965.018 83.5834 966.1 84.311C967.224 84.9477 968.522 85.266 969.992 85.266Z" fill="#667085"/>
<path d="M987.067 86.0846V5.45702H1003.03V8.18554H988.689V86.0846H987.067Z" fill="#667085"/>
<path d="M1013.65 87.7217C1011.96 87.7217 1010.45 87.3124 1009.11 86.4939C1007.81 85.6753 1006.77 83.9927 1005.99 81.4461C1005.21 78.8995 1004.82 74.9886 1004.82 69.7135V22.101C1004.82 16.8258 1005.21 12.9604 1005.99 10.5048C1006.77 7.95816 1007.83 6.32106 1009.17 5.59345C1010.55 4.7749 1012.09 4.36562 1013.78 4.36562C1015.51 4.36562 1017.02 4.7749 1018.32 5.59345C1019.66 6.412 1020.72 8.09459 1021.5 10.6412C1022.28 13.0969 1022.67 16.9168 1022.67 22.101V69.7135C1022.67 75.0796 1022.28 79.0359 1021.5 81.5825C1020.72 84.1291 1019.66 85.7663 1018.32 86.4939C1016.98 87.3124 1015.42 87.7217 1013.65 87.7217ZM1013.71 85.266C1015.18 85.266 1016.46 84.9477 1017.54 84.311C1018.66 83.5834 1019.53 82.1282 1020.14 79.9454C1020.78 77.6717 1021.11 74.2156 1021.11 69.5771V22.5102C1021.11 17.8718 1020.78 14.4611 1020.14 12.2783C1019.53 10.0045 1018.66 8.54934 1017.54 7.91269C1016.42 7.18508 1015.14 6.82128 1013.71 6.82128C1012.24 6.82128 1010.94 7.18508 1009.82 7.91269C1008.74 8.54934 1007.87 10.0045 1007.22 12.2783C1006.62 14.4611 1006.32 17.8718 1006.32 22.5102V69.5771C1006.32 74.2156 1006.62 77.6717 1007.22 79.9454C1007.87 82.1282 1008.74 83.5834 1009.82 84.311C1010.94 84.9477 1012.24 85.266 1013.71 85.266Z" fill="#667085"/>
<path d="M1049.03 87.176C1046.7 87.176 1044.84 86.2665 1043.45 84.4475C1042.11 82.6285 1041.14 80.1728 1040.53 77.0805C1039.97 73.9882 1039.69 70.623 1039.69 66.985V59.7544H1041.38V68.0764C1041.38 73.0787 1042.05 77.035 1043.39 79.9454C1044.73 82.7649 1046.61 84.2656 1049.03 84.4475C1051.32 84.4475 1053.16 83.0377 1054.55 80.2183C1055.97 77.3079 1056.69 73.306 1056.69 68.2128V60.9823C1056.69 56.1619 1055.97 52.3874 1054.55 49.6589C1053.12 46.9304 1051.24 45.4752 1048.9 45.2933H1044.62V42.1555H1048.9C1050.03 42.1555 1051.11 41.6553 1052.15 40.6548C1053.18 39.6544 1054.05 38.1992 1054.74 36.2892C1055.26 34.834 1055.65 33.2879 1055.91 31.6507C1056.17 29.9227 1056.3 28.1037 1056.3 26.1937V22.101C1056.3 18.0991 1055.71 14.6885 1054.55 11.869C1053.38 9.04956 1051.54 7.63983 1049.03 7.63983C1046.52 7.63983 1044.69 9.04956 1043.52 11.869C1042.35 14.6885 1041.77 18.1446 1041.77 22.2374V28.1037H1040.01V23.3288C1040.01 17.5989 1040.73 13.0969 1042.16 9.82265C1043.58 6.54843 1045.87 4.91132 1049.03 4.91132C1052.19 4.91132 1054.48 6.54843 1055.91 9.82265C1057.34 13.0969 1058.05 17.5989 1058.05 23.3288V25.9209C1058.05 30.7412 1057.47 34.6066 1056.3 37.5171C1055.17 40.4275 1053.79 42.5193 1052.15 43.7926C1054.27 44.7931 1055.82 46.9304 1056.82 50.2046C1057.86 53.4789 1058.38 57.4352 1058.38 62.0737V66.985C1058.38 70.623 1058.09 73.9882 1057.53 77.0805C1056.97 80.1728 1056 82.6285 1054.61 84.4475C1053.27 86.2665 1051.41 87.176 1049.03 87.176Z" fill="#667085"/>
<path d="M1060.53 100V83.6289H1063.51C1064.55 83.447 1065.37 82.492 1065.98 80.764C1066.58 79.0359 1066.97 75.8072 1067.14 71.0778C1067.27 67.0759 1067.4 62.9377 1067.53 58.663C1067.66 54.3884 1067.79 50.0682 1067.92 45.7026C1068.1 41.337 1068.25 36.9259 1068.38 32.4693C1068.51 28.0127 1068.64 23.5107 1068.77 18.9632C1068.94 14.4156 1069.11 9.91359 1069.29 5.45702H1084.14V83.6289H1089.33V100H1087.78V86.221H1062.08V100H1060.53ZM1067.08 83.6289H1082.52V8.18554H1070.84C1070.5 18.6448 1070.15 29.0132 1069.8 39.2906C1069.5 49.568 1069.18 59.8909 1068.83 70.2592C1068.74 72.3511 1068.61 74.7158 1068.44 77.3533C1068.27 79.9909 1067.81 82.0828 1067.08 83.6289Z" fill="#667085"/>
<path d="M1102.48 87.7217C1100.79 87.7217 1099.28 87.3124 1097.94 86.4939C1096.64 85.6753 1095.6 83.9927 1094.83 81.4461C1094.05 78.8995 1093.66 74.9886 1093.66 69.7135V22.101C1093.66 16.8258 1094.05 12.9604 1094.83 10.5048C1095.6 7.95816 1096.66 6.32106 1098 5.59345C1099.39 4.7749 1100.92 4.36562 1102.61 4.36562C1104.34 4.36562 1105.85 4.7749 1107.15 5.59345C1108.49 6.412 1109.55 8.09459 1110.33 10.6412C1111.11 13.0969 1111.5 16.9168 1111.5 22.101V69.7135C1111.5 75.0796 1111.11 79.0359 1110.33 81.5825C1109.55 84.1291 1108.49 85.7663 1107.15 86.4939C1105.81 87.3124 1104.25 87.7217 1102.48 87.7217ZM1102.55 85.266C1104.02 85.266 1105.29 84.9477 1106.37 84.311C1107.5 83.5834 1108.36 82.1282 1108.97 79.9454C1109.62 77.6717 1109.94 74.2156 1109.94 69.5771V22.5102C1109.94 17.8718 1109.62 14.4611 1108.97 12.2783C1108.36 10.0045 1107.5 8.54934 1106.37 7.91269C1105.25 7.18508 1103.97 6.82128 1102.55 6.82128C1101.08 6.82128 1099.78 7.18508 1098.65 7.91269C1097.57 8.54934 1096.71 10.0045 1096.06 12.2783C1095.45 14.4611 1095.15 17.8718 1095.15 22.5102V69.5771C1095.15 74.2156 1095.45 77.6717 1096.06 79.9454C1096.71 82.1282 1097.57 83.5834 1098.65 84.311C1099.78 84.9477 1101.08 85.266 1102.55 85.266Z" fill="#667085"/>
<path d="M1119.62 86.0846V5.45702H1130.26C1132.16 5.45702 1133.79 6.45748 1135.13 8.45839C1136.51 10.3683 1137.2 13.779 1137.2 18.6903V34.1064C1137.2 36.8349 1136.99 39.3815 1136.55 41.7462C1136.16 44.111 1135.36 46.0209 1134.15 47.4761C1132.99 48.9313 1131.23 49.6589 1128.9 49.6589H1121.24V86.0846H1119.62ZM1121.24 47.2033H1128.83C1131.08 47.2033 1132.77 46.0664 1133.89 43.7926C1135.06 41.4279 1135.65 37.9718 1135.65 33.4243V19.3724C1135.65 15.4616 1135.08 12.5966 1133.96 10.7776C1132.88 8.86767 1131.62 7.91269 1130.2 7.91269H1121.24V47.2033Z" fill="#667085"/>
<path d="M1151.27 87.7217C1149.58 87.7217 1148.07 87.3124 1146.73 86.4939C1145.43 85.6753 1144.39 83.9927 1143.61 81.4461C1142.84 78.8995 1142.45 74.9886 1142.45 69.7135V22.101C1142.45 16.8258 1142.84 12.9604 1143.61 10.5048C1144.39 7.95816 1145.45 6.32106 1146.79 5.59345C1148.18 4.7749 1149.71 4.36562 1151.4 4.36562C1153.13 4.36562 1154.64 4.7749 1155.94 5.59345C1157.28 6.412 1158.34 8.09459 1159.12 10.6412C1159.9 13.0969 1160.29 16.9168 1160.29 22.101V69.7135C1160.29 75.0796 1159.9 79.0359 1159.12 81.5825C1158.34 84.1291 1157.28 85.7663 1155.94 86.4939C1154.6 87.3124 1153.04 87.7217 1151.27 87.7217ZM1151.33 85.266C1152.8 85.266 1154.08 84.9477 1155.16 84.311C1156.29 83.5834 1157.15 82.1282 1157.76 79.9454C1158.41 77.6717 1158.73 74.2156 1158.73 69.5771V22.5102C1158.73 17.8718 1158.41 14.4611 1157.76 12.2783C1157.15 10.0045 1156.29 8.54934 1155.16 7.91269C1154.04 7.18508 1152.76 6.82128 1151.33 6.82128C1149.86 6.82128 1148.57 7.18508 1147.44 7.91269C1146.36 8.54934 1145.5 10.0045 1144.85 12.2783C1144.24 14.4611 1143.94 17.8718 1143.94 22.5102V69.5771C1143.94 74.2156 1144.24 77.6717 1144.85 79.9454C1145.5 82.1282 1146.36 83.5834 1147.44 84.311C1148.57 84.9477 1149.86 85.266 1151.33 85.266Z" fill="#667085"/>
<path d="M1168.41 86.0846V5.45702H1178.98C1180.89 5.45702 1182.53 6.45748 1183.92 8.45839C1185.3 10.3683 1185.99 13.779 1185.99 18.6903V28.9222C1185.99 31.5598 1185.8 33.879 1185.41 35.8799C1185.06 37.7899 1184.61 39.3361 1184.04 40.5184C1183.35 41.8827 1182.55 42.7467 1181.64 43.1105C1180.74 43.4743 1180.02 43.6562 1179.5 43.6562V43.2469C1180.5 43.2469 1181.43 43.4743 1182.29 43.9291C1183.2 44.2929 1183.92 45.0659 1184.43 46.2483C1185.04 47.6126 1185.49 49.2497 1185.8 51.1596C1186.14 52.9786 1186.32 55.116 1186.32 57.5716V69.7135C1186.32 74.4429 1185.97 77.99 1185.28 80.3547C1184.63 82.6285 1183.7 84.1746 1182.49 84.9932C1181.32 85.7208 1179.96 86.0846 1178.4 86.0846H1168.41ZM1169.97 83.6289H1178.34C1179.63 83.6289 1180.76 83.3106 1181.71 82.6739C1182.7 81.9463 1183.46 80.5821 1183.98 78.5812C1184.5 76.4893 1184.76 73.397 1184.76 69.3042V57.2988C1184.76 52.3874 1184.07 49.1132 1182.68 47.4761C1181.3 45.839 1179.59 45.0205 1177.56 45.0205H1169.97V83.6289ZM1169.97 42.4284H1177.49C1179.78 42.4284 1181.51 41.246 1182.68 38.8813C1183.85 36.5166 1184.43 33.3333 1184.43 29.3315V19.236C1184.43 15.4161 1183.87 12.5966 1182.75 10.7776C1181.67 8.86767 1180.39 7.91269 1178.92 7.91269H1169.97V42.4284Z" fill="#667085"/>
<path d="M1193.78 11.869L1189.04 0H1191.12L1194.75 11.869H1193.78Z" fill="#667085"/>
<path d="M1216 86.0846H1214.44V47.0668H1207.89C1206.29 47.0668 1205.12 48.2947 1204.39 50.7503C1203.69 53.206 1203.13 55.8436 1202.7 58.663L1198.68 86.0846H1196.99L1201.14 58.3902C1201.75 54.2065 1202.4 51.1141 1203.09 49.1132C1203.82 47.0214 1204.88 46.0209 1206.27 46.1119V46.3847C1204.02 46.3847 1202.14 45.2478 1200.62 42.9741C1199.15 40.7003 1198.42 37.0623 1198.42 32.06V18.6903C1198.42 13.779 1199.11 10.3683 1200.49 8.45839C1201.88 6.45748 1203.5 5.45702 1205.36 5.45702H1216V86.0846ZM1214.44 44.4748V7.91269H1205.81C1203.87 7.91269 1202.4 8.86767 1201.4 10.7776C1200.45 12.6876 1199.97 15.507 1199.97 19.236V30.9686C1199.97 35.2433 1200.47 38.563 1201.47 40.9277C1202.51 43.2924 1204.28 44.4748 1206.79 44.4748H1214.44Z" fill="#667085"/>
</svg>