<svg width="23" height="32" viewBox="0 0 23 32" fill="none" xmlns="http://www.w3.org/2000/svg">
<path d="M22.5941 5.79597L17.3207 0.2698C17.1559 0.097015 16.9324 0 16.6992 0H0.878906C0.393516 0 0 0.412375 0 0.921028V30.5167C0 31.0254 0.393516 31.4378 0.878906 31.4378H21.9727C22.458 31.4378 22.8516 31.0254 22.8516 30.5167V6.4472C22.8516 6.20288 22.759 5.96863 22.5941 5.79597ZM17.5781 3.14457L19.8508 5.52617H17.5781V3.14457ZM1.75781 29.5957V1.84206H15.8203V6.4472C15.8203 6.95585 16.2138 7.36822 16.6992 7.36822H21.0938V29.5957H1.75781Z" fill="white"/>
<path d="M11.1683 22.8048C10.8251 22.4451 10.2686 22.4451 9.92537 22.8048L8.99414 23.7806L7.45805 22.1709C8.25234 21.6943 8.78906 20.7978 8.78906 19.7719C8.78906 18.2483 7.60623 17.0088 6.15234 17.0088H4.39453C3.90914 17.0088 3.51562 17.4212 3.51562 17.9298V24.8682C3.51562 25.3768 3.90914 25.7892 4.39453 25.7892C4.87992 25.7892 5.27344 25.3768 5.27344 24.8682V22.535H5.31955L7.75119 25.0831L6.81803 26.061C6.47478 26.4206 6.47478 27.0038 6.81803 27.3635C7.16133 27.7232 7.71773 27.7232 8.06098 27.3635L8.99414 26.3857L9.92121 27.3572C10.2645 27.7168 10.8209 27.7168 11.1642 27.3572C11.5074 26.9975 11.5074 26.4143 11.1642 26.0546L10.2371 25.0831L11.1684 24.1072C11.5116 23.7476 11.5116 23.1644 11.1683 22.8048ZM5.27344 18.8508H6.15234C6.63697 18.8508 7.03125 19.264 7.03125 19.7719C7.03125 20.2797 6.63697 20.6929 6.15234 20.6929H5.27344V18.8508Z" fill="white"/>
<path d="M18.457 9.20996H4.39453C3.90914 9.20996 3.51562 9.62234 3.51562 10.131C3.51562 10.6396 3.90914 11.052 4.39453 11.052H18.457C18.9424 11.052 19.3359 10.6396 19.3359 10.131C19.3359 9.62234 18.9424 9.20996 18.457 9.20996Z" fill="white"/>
<path d="M18.457 12.8945H4.39453C3.90914 12.8945 3.51562 13.3069 3.51562 13.8156C3.51562 14.3242 3.90914 14.7366 4.39453 14.7366H18.457C18.9424 14.7366 19.3359 14.3242 19.3359 13.8156C19.3359 13.3069 18.9424 12.8945 18.457 12.8945Z" fill="white"/>
<path d="M4.39453 7.36842H13.1836C13.669 7.36842 14.0625 6.95605 14.0625 6.4474C14.0625 5.93874 13.669 5.52637 13.1836 5.52637H4.39453C3.90914 5.52637 3.51562 5.93874 3.51562 6.4474C3.51562 6.95605 3.90914 7.36842 4.39453 7.36842Z" fill="white"/>
<path d="M18.457 16.5781H13.1836C12.6982 16.5781 12.3047 16.9905 12.3047 17.4992C12.3047 18.0078 12.6982 18.4202 13.1836 18.4202H18.457C18.9424 18.4202 19.3359 18.0078 19.3359 17.4992C19.3359 16.9905 18.9424 16.5781 18.457 16.5781Z" fill="white"/>
<path d="M18.457 20.2627H13.1836C12.6982 20.2627 12.3047 20.6751 12.3047 21.1837C12.3047 21.6924 12.6982 22.1048 13.1836 22.1048H18.457C18.9424 22.1048 19.3359 21.6924 19.3359 21.1837C19.3359 20.6751 18.9424 20.2627 18.457 20.2627Z" fill="white"/>
</svg>
