<svg width="30" height="30" viewBox="0 0 30 30" fill="none" xmlns="http://www.w3.org/2000/svg">
<path d="M29.1211 28.2422H28.2422V1.75781H29.1211C29.6065 1.75781 30 1.3643 30 0.878906C30 0.393516 29.6065 0 29.1211 0H0.878906C0.393516 0 0 0.393516 0 0.878906C0 1.3643 0.393516 1.75781 0.878906 1.75781H1.75781V28.2422H0.878906C0.393516 28.2422 0 28.6357 0 29.1211C0 29.6065 0.393516 30 0.878906 30H29.1211C29.6065 30 30 29.6065 30 29.1211C30 28.6357 29.6065 28.2422 29.1211 28.2422ZM3.51562 1.75781H26.4844V28.2422H14.124V24.668H23.8477C24.333 24.668 24.7266 24.2745 24.7266 23.7891V15C24.7266 14.5146 24.333 14.1211 23.8477 14.1211C23.2092 14.1211 6.85166 14.1211 6.21387 14.1211C5.72848 14.1211 5.33496 14.5146 5.33496 15V28.2422H3.51562V1.75781ZM19.3975 22.9102H17.6396V21.1523C17.6396 20.6677 18.0339 20.2734 18.5186 20.2734C19.0032 20.2734 19.3975 20.6677 19.3975 21.1523V22.9102ZM18.5186 18.5156C17.0647 18.5156 15.8818 19.6985 15.8818 21.1523V22.9102H14.124V15.8789H22.9688V22.9102H21.1553V21.1523C21.1553 19.6985 19.9724 18.5156 18.5186 18.5156ZM12.3662 28.2422H7.09277V15.8789H12.3662V28.2422Z" fill="white"/>
<path d="M11.4805 10.5469H12.3623V11.4287C12.3623 11.9141 12.7558 12.3076 13.2412 12.3076H16.7568C17.2422 12.3076 17.6358 11.9141 17.6358 11.4287V10.5469H18.5117C18.9971 10.5469 19.3906 10.1534 19.3906 9.66797V6.15234C19.3906 5.66695 18.9971 5.27344 18.5117 5.27344H17.6358V4.39746C17.6358 3.91207 17.2422 3.51855 16.7568 3.51855H13.2412C12.7558 3.51855 12.3623 3.91207 12.3623 4.39746V5.27344H11.4805C10.9951 5.27344 10.6016 5.66695 10.6016 6.15234V9.66797C10.6016 10.1534 10.9951 10.5469 11.4805 10.5469ZM12.3594 7.03125H13.2412C13.7266 7.03125 14.1201 6.63773 14.1201 6.15234V5.27637H15.8779V6.15234C15.8779 6.63773 16.2715 7.03125 16.7568 7.03125H17.6328V8.78906H16.7568C16.2715 8.78906 15.8779 9.18258 15.8779 9.66797V10.5498H14.1201V9.66797C14.1201 9.18258 13.7266 8.78906 13.2412 8.78906H12.3594V7.03125Z" fill="white"/>
</svg>
