<svg width="50" height="54" viewBox="0 0 50 54" fill="none" xmlns="http://www.w3.org/2000/svg">
<path d="M26.2232 15.6346C19.6575 15.6346 14.3349 20.9572 14.3349 27.523L14.3349 43.1226C14.3349 49.0286 19.1227 53.8164 25.0287 53.8164C30.9347 53.8164 35.7225 49.0286 35.7225 43.1226L35.7225 39.8294C35.7225 39.1125 36.3036 38.5314 37.0204 38.5314L38.5516 38.5314C44.8744 38.5314 50 33.4058 50 27.083C50 20.7602 44.8744 15.6346 38.5516 15.6346L26.2232 15.6346Z" fill="white"/>
<path fill-rule="evenodd" clip-rule="evenodd" d="M24.9713 0.288086C30.8774 0.288086 35.6651 5.07588 35.6651 10.9819V32.5257C35.6651 35.8086 33.0038 38.4699 29.7209 38.4699H11.4484C5.12563 38.4699 0 33.3443 0 27.0215C0 20.6987 5.12562 15.5731 11.4484 15.5731H12.9796C13.6964 15.5731 14.2775 14.992 14.2775 14.2751V10.9819C14.2775 5.07587 19.0653 0.288086 24.9713 0.288086ZM29.8738 13.6088C27.0454 10.1391 25.1518 8.89398 21.1009 8.20682C21.1009 8.20682 24.2546 4.95339 27.6949 7.34743C31.1353 9.74146 29.8738 13.6088 29.8738 13.6088Z" fill="#2FD3AE"/>
</svg>
