<svg width="40" height="40" viewBox="0 0 40 40" fill="none" xmlns="http://www.w3.org/2000/svg">
<g clip-path="url(#clip0_41955_15072)">
<path d="M1.37891 2.75879H22.0686V40.0002H1.37891V2.75879Z" fill="#5AAAE7"/>
<path d="M22.0684 8.27539H37.2408V39.9995H22.0684V8.27539Z" fill="#3D9AE2"/>
<path d="M12.4135 31.7246H7.58594V40.0005H15.8618V31.7246H12.4135Z" fill="#E6E7E8"/>
<path d="M39.3101 20.6895H28.2756C27.8947 20.6895 27.5859 20.9982 27.5859 21.3791V28.2757C27.5859 28.6565 27.8947 28.9653 28.2756 28.9653H30.3446V32.4136L33.7928 28.9653H39.3101C39.6909 28.9653 39.9997 28.6565 39.9997 28.2757V21.3791C39.9997 20.9982 39.6909 20.6895 39.3101 20.6895Z" fill="#FFD422"/>
<path d="M31.0352 17.9307H33.7938V20.6893H31.0352V17.9307Z" fill="#E6E7E8"/>
<path d="M25.5176 17.9307H28.2762V20.6893H25.5176V17.9307Z" fill="#E6E7E8"/>
<path d="M31.0352 12.4141H33.7938V15.1727H31.0352V12.4141Z" fill="#E6E7E8"/>
<path d="M25.5176 12.4141H28.2762V15.1727H25.5176V12.4141Z" fill="#E6E7E8"/>
<path d="M15.8633 23.4482H17.9322C17.482 24.0436 17.2396 24.7706 17.2426 25.5172V26.2069H15.8633V23.4482Z" fill="#E6E7E8"/>
<path d="M10.3457 23.4482H13.1043V26.2069H10.3457V23.4482Z" fill="#E6E7E8"/>
<path d="M4.82812 23.4482H7.58675V26.2069H4.82812V23.4482Z" fill="#E6E7E8"/>
<path d="M15.8633 17.9307H18.6219V20.6893H15.8633V17.9307Z" fill="#E6E7E8"/>
<path d="M10.3457 17.9307H13.1043V20.6893H10.3457V17.9307Z" fill="#E6E7E8"/>
<path d="M4.82812 17.9307H7.58675V20.6893H4.82812V17.9307Z" fill="#E6E7E8"/>
<path d="M15.8633 12.4141H18.6219V15.1727H15.8633V12.4141Z" fill="#E6E7E8"/>
<path d="M10.3457 12.4141H13.1043V15.1727H10.3457V12.4141Z" fill="#E6E7E8"/>
<path d="M4.82812 12.4141H7.58675V15.1727H4.82812V12.4141Z" fill="#E6E7E8"/>
<path d="M15.8633 6.89648H18.6219V9.65511H15.8633V6.89648Z" fill="#E6E7E8"/>
<path d="M10.3457 6.89648H13.1043V9.65511H10.3457V6.89648Z" fill="#E6E7E8"/>
<path d="M4.82812 6.89648H7.58675V9.65511H4.82812V6.89648Z" fill="#E6E7E8"/>
<path d="M23.0694 32.0073L22.0693 32.7589L20.69 33.7934L18.3105 32.0073L19.3107 31.7244V29.9727C20.1633 30.4694 21.2167 30.4694 22.0693 29.9727V31.7244L23.0694 32.0073Z" fill="#FFDAAA"/>
<path d="M23.4483 0V2.75862H0V0H23.4483Z" fill="#1A6FB0"/>
<path d="M22.3801 25.441L22.0696 24.8271L21.0418 25.5101C20.3629 25.9654 19.5632 26.2081 18.7456 26.2065H17.9316V27.5858C17.93 28.5718 18.456 29.4837 19.3099 29.9763C20.1643 30.469 21.2169 30.4673 22.0696 29.972C22.2777 29.8514 22.47 29.7053 22.642 29.5376C23.1576 29.0186 23.4475 28.3172 23.4489 27.5858V26.1927C22.9869 26.1428 22.5831 25.8586 22.3801 25.441Z" fill="#FFDAAA"/>
<path d="M22.0692 29.9727V30.6623C21.2165 31.159 20.1632 31.159 19.3105 30.6623V29.9727C20.1632 30.4694 21.2165 30.4694 22.0692 29.9727Z" fill="#F2CD9D"/>
<path d="M22.0698 22.3522C21.6337 22.166 21.1646 22.0697 20.6905 22.0693C19.6055 22.0703 18.5838 22.5812 17.9319 23.4486C17.4816 24.044 17.2392 24.771 17.2422 25.5176V26.2073H18.7458C19.5634 26.2089 20.3632 25.9662 21.0421 25.5109L22.0698 24.828L22.3803 25.4418C22.5833 25.8594 22.9871 26.1436 23.4491 26.1935C23.5037 26.2049 23.5592 26.2096 23.6148 26.2073H24.1388V25.5176C24.1357 24.146 23.3245 22.9055 22.0698 22.3522Z" fill="#3E3D42"/>
<path d="M24.8963 32.5308L23.0688 32.0068L22.0686 32.7585L20.6893 33.7929L18.3099 32.0068L16.4824 32.5308C15.2963 32.8679 14.4791 33.9529 14.4824 35.1861V39.9998H26.8962V35.1861C26.8976 33.9536 26.0813 32.8699 24.8963 32.5308Z" fill="#00CCB3"/>
<path d="M1.37891 2.75879H22.0686V4.1381H1.37891V2.75879Z" fill="#3D9AE2"/>
<path d="M16.5508 35.1729H17.9301V40.0004H16.5508V35.1729Z" fill="#00B39D"/>
<path d="M23.4492 35.1729H24.8285V40.0004H23.4492V35.1729Z" fill="#00B39D"/>
<path d="M30.3457 22.7588H37.2423V24.1381H30.3457V22.7588Z" fill="#DDB200"/>
<path d="M30.3457 25.5176H37.2423V26.8969H30.3457V25.5176Z" fill="#DDB200"/>
</g>
<defs>
<clipPath id="clip0_41955_15072">
<rect width="40" height="40" fill="white"/>
</clipPath>
</defs>
</svg>
