<svg width="38" height="36" viewBox="0 0 38 36" fill="none" xmlns="http://www.w3.org/2000/svg">
<path d="M18.375 7.625V19.6062C18.3749 19.7712 18.3423 19.9344 18.279 20.0867C18.2158 20.239 18.1231 20.3773 18.0063 20.4937L17.4937 21.0063C17.3769 21.1227 17.2842 21.261 17.221 21.4133C17.1577 21.5656 17.1251 21.7288 17.125 21.8938V33.875C17.124 34.2062 16.992 34.5236 16.7578 34.7578C16.5236 34.992 16.2062 35.124 15.875 35.125H4.625C4.29378 35.124 3.97642 34.992 3.74221 34.7578C3.508 34.5236 3.37599 34.2062 3.375 33.875V21.8938C3.37493 21.7288 3.34232 21.5656 3.27904 21.4133C3.21576 21.261 3.12306 21.1227 3.00625 21.0063L2.49375 20.4937C2.37694 20.3773 2.28424 20.239 2.22096 20.0867C2.15768 19.9344 2.12507 19.7712 2.125 19.6062V7.625C2.12599 7.29378 2.258 6.97642 2.49221 6.74221C2.72642 6.508 3.04378 6.37599 3.375 6.375H4.625V8.25C4.625 8.41576 4.69085 8.57473 4.80806 8.69194C4.92527 8.80915 5.08424 8.875 5.25 8.875H15.25C15.4158 8.875 15.5747 8.80915 15.6919 8.69194C15.8092 8.57473 15.875 8.41576 15.875 8.25V6.375H17.125C17.4562 6.37599 17.7736 6.508 18.0078 6.74221C18.242 6.97642 18.374 7.29378 18.375 7.625Z" fill="#5AAAE7"/>
<path d="M23.375 5.75C23.375 6.24728 23.1775 6.72419 22.8258 7.07583C22.4742 7.42746 21.9973 7.625 21.5 7.625C21.0027 7.625 20.5258 7.42746 20.1742 7.07583C19.8225 6.72419 19.625 6.24728 19.625 5.75V5.125H22.75C22.9158 5.125 23.0747 5.19085 23.1919 5.30806C23.3092 5.42527 23.375 5.58424 23.375 5.75Z" fill="#E6E7E8"/>
<path d="M19.625 5.75C19.625 6.24728 19.8225 6.72419 20.1742 7.07583C20.5258 7.42746 21.0027 7.625 21.5 7.625H18.375C18.374 7.29378 18.242 6.97642 18.0078 6.74221C17.7736 6.508 17.4562 6.37599 17.125 6.375H13.375V2.625C13.375 1.96196 13.6384 1.32607 14.1072 0.857233C14.5761 0.388392 15.212 0.125 15.875 0.125H17.125C17.788 0.125 18.4239 0.388392 18.8928 0.857233C19.3616 1.32607 19.625 1.96196 19.625 2.625V5.75Z" fill="#D8D7DA"/>
<path d="M7.125 6.375V8.875H5.25C5.08424 8.875 4.92527 8.80915 4.80806 8.69194C4.69085 8.57473 4.625 8.41576 4.625 8.25V6.375H7.125Z" fill="#3D9AE2"/>
<path d="M15.875 6.375V8.25C15.875 8.41576 15.8092 8.57473 15.6919 8.69194C15.5747 8.80915 15.4158 8.875 15.25 8.875H13.375V6.375H15.875Z" fill="#3D9AE2"/>
<path d="M15.25 11.375H5.25C4.90482 11.375 4.625 11.6548 4.625 12V14.5C4.625 14.8452 4.90482 15.125 5.25 15.125H15.25C15.5952 15.125 15.875 14.8452 15.875 14.5V12C15.875 11.6548 15.5952 11.375 15.25 11.375Z" fill="#3D9AE2"/>
<path d="M9.625 0.125H15.875C15.212 0.125 14.5761 0.388392 14.1072 0.857233C13.6384 1.32607 13.375 1.96196 13.375 2.625V8.875H7.125V2.625C7.125 1.96196 7.38839 1.32607 7.85723 0.857233C8.32607 0.388392 8.96196 0.125 9.625 0.125Z" fill="#E6E7E8"/>
<path d="M3.37502 23.875V32.625L1.21877 31.55C1.11474 31.4976 1.02744 31.4171 0.966699 31.3178C0.90596 31.2184 0.874205 31.104 0.875015 30.9875V25.5125C0.874205 25.396 0.90596 25.2816 0.966699 25.1822C1.02744 25.0829 1.11474 25.0024 1.21877 24.95L3.37502 23.875Z" fill="#C6C5CA"/>
<path d="M19.625 27.625H27.125V31.375C27.124 31.7062 26.992 32.0236 26.7578 32.2578C26.5236 32.492 26.2062 32.624 25.875 32.625H19.625V27.625Z" fill="#3D9AE2"/>
<path d="M19.625 32.625V33.25C19.625 33.4158 19.5592 33.5747 19.4419 33.6919C19.3247 33.8092 19.1658 33.875 19 33.875H17.125V23.875H19C19.1658 23.875 19.3247 23.9408 19.4419 24.0581C19.5592 24.1753 19.625 24.3342 19.625 24.5V32.625Z" fill="#ACABB1"/>
<path d="M21.5 25.125H25.875C26.2062 25.126 26.5236 25.258 26.7578 25.4922C26.992 25.7264 27.124 26.0438 27.125 26.375V27.625H19.625V25.125H21.5Z" fill="#D8D7DA"/>
<path d="M37.1258 28.2501V29.5001C37.1258 29.6658 37.06 29.8248 36.9428 29.942C36.8256 30.0592 36.6666 30.1251 36.5008 30.1251H32.1258V30.6626C32.126 30.7814 32.0923 30.8979 32.0287 30.9983C31.965 31.0986 31.8741 31.1788 31.7665 31.2293C31.6589 31.2798 31.5391 31.2986 31.4212 31.2835C31.3033 31.2683 31.1922 31.2199 31.1008 31.1438L28.9508 29.3563C28.8801 29.2977 28.8231 29.2241 28.784 29.1409C28.7449 29.0578 28.7246 28.967 28.7246 28.8751C28.7246 28.7831 28.7449 28.6924 28.784 28.6092C28.8231 28.526 28.8801 28.4525 28.9508 28.3938L31.1008 26.6063C31.1922 26.5302 31.3033 26.4818 31.4212 26.4666C31.5391 26.4515 31.6589 26.4703 31.7665 26.5208C31.8741 26.5713 31.965 26.6515 32.0287 26.7519C32.0923 26.8522 32.126 26.9687 32.1258 27.0876V27.6251H36.5008C36.6666 27.6251 36.8256 27.6909 36.9428 27.8081C37.06 27.9253 37.1258 28.0843 37.1258 28.2501Z" fill="#3D9AE2"/>
<path d="M19.625 25.125H20.875V27.625H19.625V25.125Z" fill="#C6C5CA"/>
<path d="M19.625 27.625H20.875V32.625H19.625V27.625Z" fill="#1E81CE"/>
<path d="M13.375 6.375H14.625V8.875H13.375V6.375Z" fill="#1E81CE"/>
<path d="M9 22.625H10.25V23.875H9V22.625Z" fill="#1E81CE"/>
<path d="M9 25.125H10.25V26.375H9V25.125Z" fill="#1E81CE"/>
<path d="M9 27.625H10.25V28.875H9V27.625Z" fill="#1E81CE"/>
<path d="M11.5 27.625H12.75V28.875H11.5V27.625Z" fill="#1E81CE"/>
<path d="M11.5 25.125H12.75V26.375H11.5V25.125Z" fill="#1E81CE"/>
<path d="M11.5 22.625H12.75V23.875H11.5V22.625Z" fill="#1E81CE"/>
<path d="M14 22.625H15.25V23.875H14V22.625Z" fill="#1E81CE"/>
<path d="M14 25.125H15.25V26.375H14V25.125Z" fill="#1E81CE"/>
<path d="M14 27.625H15.25V28.875H14V27.625Z" fill="#1E81CE"/>
<path d="M24 29.5H25.25V30.75H24V29.5Z" fill="#1E81CE"/>
<path d="M21.5 29.5H22.75V30.75H21.5V29.5Z" fill="#1E81CE"/>
<path d="M14 33.25H12.125V32H14V30.125H15.25V32C15.25 32.3315 15.1183 32.6495 14.8839 32.8839C14.6495 33.1183 14.3315 33.25 14 33.25Z" fill="#1E81CE"/>
<path d="M5.25 22.625H7.75V23.875H5.25V22.625Z" fill="#1E81CE"/>
<path d="M5.25 20.125H7.75V21.375H5.25V20.125Z" fill="#1E81CE"/>
<path d="M9 20.125H11.5V21.375H9V20.125Z" fill="#1E81CE"/>
<path d="M12.75 20.125H15.25V21.375H12.75V20.125Z" fill="#1E81CE"/>
<path d="M12.75 17.625H15.25V18.875H12.75V17.625Z" fill="#1E81CE"/>
<path d="M9.625 3.875H12.125V5.125H9.625V3.875Z" fill="#C6C5CA"/>
<path d="M8.375 1.375H10.875V2.625H8.375V1.375Z" fill="#C6C5CA"/>
<path d="M9 17.625H11.5V18.875H9V17.625Z" fill="#1E81CE"/>
<path d="M5.25 17.625H7.75V18.875H5.25V17.625Z" fill="#1E81CE"/>
<path d="M5.25 25.125H7.75V26.375H5.25V25.125Z" fill="#1E81CE"/>
<path d="M5.25 27.625H7.75V28.875H5.25V27.625Z" fill="#1E81CE"/>
<path d="M5.25 30.125H7.75V31.375H5.25V30.125Z" fill="#1E81CE"/>
</svg>
