<svg width="40" height="40" viewBox="0 0 40 40" fill="none" xmlns="http://www.w3.org/2000/svg">
<path d="M38.0816 31.8375C38.0867 31.9222 38.0745 32.007 38.0458 32.0867C38.017 32.1665 37.9724 32.2396 37.9145 32.3016C37.8566 32.3636 37.7867 32.4132 37.7091 32.4473C37.6314 32.4814 37.5477 32.4993 37.4629 32.5H20.0378C19.953 32.4993 19.8693 32.4814 19.7916 32.4473C19.714 32.4132 19.6441 32.3636 19.5862 32.3016C19.5283 32.2396 19.4837 32.1665 19.4549 32.0867C19.4262 32.007 19.414 31.9222 19.4191 31.8375L20.5878 13.0875C20.5974 12.9283 20.6675 12.7788 20.7837 12.6696C20.8998 12.5604 21.0534 12.4997 21.2128 12.5H36.2879C36.4473 12.4997 36.6009 12.5604 36.7171 12.6696C36.8332 12.7788 36.9033 12.9283 36.9129 13.0875L36.9316 13.3813L36.9879 14.2625L37.9691 30L38.0816 31.8375Z" fill="#FF6243"/>
<path d="M33.75 15H32.5V8.75C32.5 7.75544 32.1049 6.80161 31.4017 6.09835C30.6984 5.39509 29.7446 5 28.75 5C27.7554 5 26.8016 5.39509 26.0983 6.09835C25.3951 6.80161 25 7.75544 25 8.75V15H23.75V8.75C23.75 7.42392 24.2768 6.15215 25.2145 5.21447C26.1521 4.27678 27.4239 3.75 28.75 3.75C30.0761 3.75 31.3479 4.27678 32.2855 5.21447C33.2232 6.15215 33.75 7.42392 33.75 8.75V15Z" fill="#D80027"/>
<path d="M24.375 17.5C24.0042 17.5 23.6417 17.39 23.3333 17.184C23.025 16.978 22.7846 16.6851 22.6427 16.3425C22.5008 15.9999 22.4637 15.6229 22.536 15.2592C22.6084 14.8955 22.787 14.5614 23.0492 14.2992C23.3114 14.037 23.6455 13.8584 24.0092 13.786C24.3729 13.7137 24.7499 13.7508 25.0925 13.8927C25.4351 14.0346 25.728 14.275 25.934 14.5833C26.14 14.8916 26.25 15.2542 26.25 15.625C26.25 16.1223 26.0525 16.5992 25.7008 16.9508C25.3492 17.3025 24.8723 17.5 24.375 17.5ZM24.375 15C24.2514 15 24.1306 15.0367 24.0278 15.1053C23.925 15.174 23.8449 15.2716 23.7976 15.3858C23.7503 15.5 23.7379 15.6257 23.762 15.7469C23.7861 15.8682 23.8457 15.9795 23.9331 16.0669C24.0205 16.1543 24.1318 16.2139 24.2531 16.238C24.3743 16.2621 24.5 16.2497 24.6142 16.2024C24.7284 16.1551 24.826 16.075 24.8947 15.9722C24.9634 15.8695 25 15.7486 25 15.625C25 15.4592 24.9342 15.3003 24.8169 15.1831C24.6997 15.0658 24.5408 15 24.375 15Z" fill="#D80027"/>
<path d="M33.125 17.5C32.7542 17.5 32.3917 17.39 32.0833 17.184C31.775 16.978 31.5346 16.6851 31.3927 16.3425C31.2508 15.9999 31.2137 15.6229 31.286 15.2592C31.3584 14.8955 31.537 14.5614 31.7992 14.2992C32.0614 14.037 32.3955 13.8584 32.7592 13.786C33.1229 13.7137 33.4999 13.7508 33.8425 13.8927C34.1851 14.0346 34.478 14.275 34.684 14.5833C34.89 14.8916 35 15.2542 35 15.625C35 16.1223 34.8025 16.5992 34.4508 16.9508C34.0992 17.3025 33.6223 17.5 33.125 17.5ZM33.125 15C33.0014 15 32.8806 15.0367 32.7778 15.1053C32.675 15.174 32.5949 15.2716 32.5476 15.3858C32.5003 15.5 32.4879 15.6257 32.512 15.7469C32.5361 15.8682 32.5957 15.9795 32.6831 16.0669C32.7705 16.1543 32.8818 16.2139 33.0031 16.238C33.1243 16.2621 33.25 16.2497 33.3642 16.2024C33.4784 16.1551 33.576 16.075 33.6447 15.9722C33.7134 15.8695 33.75 15.7486 33.75 15.625C33.75 15.4592 33.6842 15.3003 33.5669 15.1831C33.4497 15.0658 33.2908 15 33.125 15Z" fill="#D80027"/>
<path d="M28.125 20C28.8154 20 29.375 19.4404 29.375 18.75C29.375 18.0596 28.8154 17.5 28.125 17.5C27.4346 17.5 26.875 18.0596 26.875 18.75C26.875 19.4404 27.4346 20 28.125 20Z" fill="#3D9AE2"/>
<path d="M19.375 20C20.0654 20 20.625 19.4404 20.625 18.75C20.625 18.0596 20.0654 17.5 19.375 17.5C18.6846 17.5 18.125 18.0596 18.125 18.75C18.125 19.4404 18.6846 20 19.375 20Z" fill="#3D9AE2"/>
<path d="M19.375 17.5C19.1278 17.5 18.8861 17.5733 18.6805 17.7107C18.475 17.848 18.3148 18.0432 18.2202 18.2716C18.1255 18.5001 18.1008 18.7514 18.149 18.9939C18.1973 19.2363 18.3163 19.4591 18.4911 19.6339C18.6659 19.8087 18.8887 19.9278 19.1311 19.976C19.3736 20.0242 19.6249 19.9995 19.8534 19.9049C20.0818 19.8102 20.277 19.65 20.4143 19.4445C20.5517 19.2389 20.625 18.9972 20.625 18.75C20.624 18.4188 20.492 18.1014 20.2578 17.8672C20.0236 17.633 19.7062 17.501 19.375 17.5ZM28.125 17.5C27.8778 17.5 27.6361 17.5733 27.4305 17.7107C27.225 17.848 27.0648 18.0432 26.9701 18.2716C26.8755 18.5001 26.8508 18.7514 26.899 18.9939C26.9472 19.2363 27.0663 19.4591 27.2411 19.6339C27.4159 19.8087 27.6387 19.9278 27.8811 19.976C28.1236 20.0242 28.3749 19.9995 28.6034 19.9049C28.8318 19.8102 29.027 19.65 29.1643 19.4445C29.3017 19.2389 29.375 18.9972 29.375 18.75C29.374 18.4188 29.242 18.1014 29.0078 17.8672C28.7736 17.633 28.4562 17.501 28.125 17.5Z" fill="#5AAAE7"/>
<path d="M33.0816 34.3375C33.0867 34.4222 33.0745 34.507 33.0458 34.5867C33.017 34.6665 32.9724 34.7396 32.9145 34.8016C32.8566 34.8636 32.7867 34.9132 32.7091 34.9473C32.6314 34.9814 32.5477 34.9993 32.4629 35H15.0378C14.953 34.9993 14.8693 34.9814 14.7916 34.9473C14.714 34.9132 14.6441 34.8636 14.5862 34.8016C14.5283 34.7396 14.4837 34.6665 14.4549 34.5867C14.4262 34.507 14.414 34.4222 14.4191 34.3375L15.5878 15.5875C15.5974 15.4283 15.6675 15.2788 15.7837 15.1696C15.8998 15.0604 16.0534 14.9997 16.2128 15H31.2879C31.4473 14.9997 31.6009 15.0604 31.7171 15.1696C31.8332 15.2788 31.9033 15.4283 31.9129 15.5875L31.9316 15.8813L31.9879 16.7625L32.9691 32.5L33.0816 34.3375Z" fill="#5AAAE7"/>
<path d="M19.375 20.625C19.0042 20.625 18.6416 20.515 18.3333 20.309C18.025 20.103 17.7846 19.8102 17.6427 19.4675C17.5008 19.1249 17.4637 18.7479 17.536 18.3842C17.6084 18.0205 17.787 17.6864 18.0492 17.4242C18.3114 17.162 18.6455 16.9834 19.0092 16.911C19.3729 16.8387 19.7499 16.8758 20.0925 17.0177C20.4351 17.1596 20.728 17.4 20.934 17.7083C21.14 18.0167 21.25 18.3792 21.25 18.75C21.25 19.2473 21.0525 19.7242 20.7008 20.0758C20.3492 20.4275 19.8723 20.625 19.375 20.625ZM19.375 18.125C19.2514 18.125 19.1305 18.1617 19.0278 18.2303C18.925 18.299 18.8449 18.3966 18.7976 18.5108C18.7503 18.625 18.7379 18.7507 18.762 18.8719C18.7861 18.9932 18.8457 19.1045 18.9331 19.1919C19.0205 19.2794 19.1318 19.3389 19.2531 19.363C19.3743 19.3871 19.5 19.3747 19.6142 19.3274C19.7284 19.2801 19.826 19.2 19.8947 19.0972C19.9633 18.9945 20 18.8736 20 18.75C20 18.5842 19.9342 18.4253 19.8169 18.3081C19.6997 18.1909 19.5408 18.125 19.375 18.125Z" fill="#1E81CE"/>
<path d="M28.125 20.625C27.7542 20.625 27.3917 20.515 27.0833 20.309C26.775 20.103 26.5346 19.8102 26.3927 19.4675C26.2508 19.1249 26.2137 18.7479 26.286 18.3842C26.3584 18.0205 26.537 17.6864 26.7992 17.4242C27.0614 17.162 27.3955 16.9834 27.7592 16.911C28.1229 16.8387 28.4999 16.8758 28.8425 17.0177C29.1851 17.1596 29.478 17.4 29.684 17.7083C29.89 18.0167 30 18.3792 30 18.75C30 19.2473 29.8025 19.7242 29.4508 20.0758C29.0992 20.4275 28.6223 20.625 28.125 20.625ZM28.125 18.125C28.0014 18.125 27.8806 18.1617 27.7778 18.2303C27.675 18.299 27.5949 18.3966 27.5476 18.5108C27.5003 18.625 27.4879 18.7507 27.512 18.8719C27.5361 18.9932 27.5957 19.1045 27.6831 19.1919C27.7705 19.2794 27.8818 19.3389 28.0031 19.363C28.1243 19.3871 28.25 19.3747 28.3642 19.3274C28.4784 19.2801 28.576 19.2 28.6447 19.0972C28.7134 18.9945 28.75 18.8736 28.75 18.75C28.75 18.5842 28.6842 18.4253 28.5669 18.3081C28.4497 18.1909 28.2908 18.125 28.125 18.125Z" fill="#1E81CE"/>
<path d="M28.75 17.5H27.5V11.25C27.5 10.2554 27.1049 9.30161 26.4017 8.59835C25.6984 7.89509 24.7446 7.5 23.75 7.5C22.7554 7.5 21.8016 7.89509 21.0983 8.59835C20.3951 9.30161 20 10.2554 20 11.25V17.5H18.75V11.25C18.75 9.92392 19.2768 8.65215 20.2145 7.71447C21.1521 6.77678 22.4239 6.25 23.75 6.25C25.0761 6.25 26.3479 6.77678 27.2855 7.71447C28.2232 8.65215 28.75 9.92392 28.75 11.25V17.5Z" fill="#1E81CE"/>
<path d="M21.25 22.5H2.5C2.33424 22.5 2.17527 22.5658 2.05806 22.6831C1.94085 22.8003 1.875 22.9592 1.875 23.125V31.875C1.875 32.0408 1.94085 32.1997 2.05806 32.3169C2.17527 32.4342 2.33424 32.5 2.5 32.5H21.25C21.4158 32.5 21.5747 32.4342 21.6919 32.3169C21.8092 32.1997 21.875 32.0408 21.875 31.875V23.125C21.875 22.9592 21.8092 22.8003 21.6919 22.6831C21.5747 22.5658 21.4158 22.5 21.25 22.5Z" fill="#FF9811"/>
<path d="M3.75 24.375H5V28.125H3.75V24.375Z" fill="#EE8700"/>
<path d="M3.75 29.375H5V30.625H3.75V29.375Z" fill="#EE8700"/>
<path d="M6.25 24.375H7.5V28.125H6.25V24.375Z" fill="#EE8700"/>
<path d="M8.75 24.375H10V30.625H8.75V24.375Z" fill="#EE8700"/>
<path d="M6.25 29.375H7.5V30.625H6.25V29.375Z" fill="#EE8700"/>
<path d="M18.75 24.375H20V28.125H18.75V24.375Z" fill="#EE8700"/>
<path d="M18.75 29.375H20V30.625H18.75V29.375Z" fill="#EE8700"/>
<path d="M13.75 24.375H15V30.625H13.75V24.375Z" fill="#EE8700"/>
<path d="M16.25 24.375H17.5V30.625H16.25V24.375Z" fill="#EE8700"/>
<path d="M11.25 24.375H12.5V28.125H11.25V24.375Z" fill="#EE8700"/>
<path d="M11.25 29.375H12.5V30.625H11.25V29.375Z" fill="#EE8700"/>
</svg>
